<?xml version="1.0" encoding="utf-8"?>
<!-- Generator: Adobe Illustrator 23.0.1, SVG Export Plug-In . SVG Version: 6.00 Build 0)  -->
<svg version="1.1" id="Layer_1" xmlns="http://www.w3.org/2000/svg" xmlns:xlink="http://www.w3.org/1999/xlink" x="0px" y="0px"
	 viewBox="0 0 1366 768" style="enable-background:new 0 0 1366 768;" xml:space="preserve">
<style type="text/css">
	.st0{fill:url(#SVGID_1_);}
	.st1{fill:#5FD4FF;}
	.st2{fill:#FFFFFF;}
	.st3{fill:none;}
	.st4{fill-rule:evenodd;clip-rule:evenodd;fill:#5FD4FF;}
</style>
<g>
	<g>
		<g>
			
				<linearGradient id="SVGID_1_" gradientUnits="userSpaceOnUse" x1="258" y1="371.5" x2="868" y2="371.5" gradientTransform="matrix(1 0 0 -1 0 768)">
				<stop  offset="0" style="stop-color:#15EEFF;stop-opacity:0.18"/>
				<stop  offset="3.530000e-02" style="stop-color:#16DFFC;stop-opacity:0.2089"/>
				<stop  offset="0.1526" style="stop-color:#18B2F5;stop-opacity:0.3051"/>
				<stop  offset="0.275" style="stop-color:#1A8CEE;stop-opacity:0.4055"/>
				<stop  offset="0.401" style="stop-color:#1C6DE9;stop-opacity:0.5088"/>
				<stop  offset="0.5319" style="stop-color:#1D55E4;stop-opacity:0.6161"/>
				<stop  offset="0.6696" style="stop-color:#1E43E1;stop-opacity:0.7291"/>
				<stop  offset="0.8188" style="stop-color:#1F39E0;stop-opacity:0.8514"/>
				<stop  offset="1" style="stop-color:#1F36DF"/>
			</linearGradient>
			<path class="st0" d="M563,91.4c-105.8,0-198.9,53.8-253.6,135.6c-7.4,11.1-14.2,22.7-20.1,34.8c-5.3,10.8-10,22-14.1,33.5
				c-11.1,31.5-17.1,65.4-17.2,100.7v0.5c0,60.3,17.5,116.5,47.7,163.8c6.3,10,13.3,19.5,20.7,28.7c8,9.9,16.7,19.2,25.8,28
				c11.1,10.6,23,20.4,35.6,29.3c49.6,34.8,110,55.3,175.2,55.3c168.5,0,305-136.5,305-305S731.5,91.4,563,91.4z"/>
		</g>
	</g>
</g>
<path class="st1" d="M538.2,583c-8.1,0-14.7,6.6-14.7,14.7c0,8.1,6.6,14.7,14.7,14.7c7.8,0,78.2,0,78.2,0c8.1,0,15.1-6.6,15.1-14.7
	c0-8.1-6.9-14.7-15.1-14.7h-78.9H538.2z"/>
<path class="st1" d="M358.7,429c-8.4,0-15.2,6.8-15.2,15.2s6.8,15.2,15.2,15.2c8,0,80.8,0,80.8,0c8.4,0,15.6-6.8,15.6-15.2
	s-7.2-15.2-15.6-15.2H358H358.7z"/>
<path class="st2" d="M667.2,536c-8.1,0-14.7,6.6-14.7,14.7c0,8.1,6.6,14.7,14.7,14.7c7.8,0,78.2,0,78.2,0c8.1,0,15.1-6.6,15.1-14.7
	c0-8.1-6.9-14.7-15.1-14.7h-78.9H667.2z"/>
<path class="st1" d="M640.2,204.5l34.6,0.4h-38.3C637.8,204.6,639,204.5,640.2,204.5z"/>
<path class="st1" d="M708.5,192.4v0.2h0C708.5,192.5,708.5,192.5,708.5,192.4z"/>
<g>
	<g>
		<g>
			<path class="st2" d="M450.1,312.6c0,9.5-8.5,16.9-19.4,16.9l-68.6-0.7c-10.9,0-20.2,7.4-20.2,16.9s8.9,16.6,19.8,16.6
				s19.8,7.1,19.8,16.6s-8.1,17.6-19,17.6H259c0-35.3,6.1-69.2,17.2-100.7c1.7,0.4,3.6,0.7,5.7,0.7l148-0.8
				C440.8,295.7,450.1,303.1,450.1,312.6z"/>
			<path class="st2" d="M354.1,244.8c0,9.5-8.1,16.9-19,16.9l-44.8,0.6c5.9-12.1,12.7-23.7,20.1-34.8l24.3,0.3
				C345.6,227.9,354.1,235.3,354.1,244.8z"/>
		</g>
	</g>
</g>
<g>
	<path class="st2" d="M591.9,576.2c0,2.5-0.6,4.8-1.8,6.8c-2.5,4.5-7.5,7.5-13.3,7.5l-51.2-0.5h-2.1c-8.5,0-15.7,6.3-15.7,14.3
		s6.9,14,15.4,14s15.4,6,15.4,14c0,8.1-6.3,14.9-14.8,14.9l-135-0.4c-12.6-8.8-24.5-18.6-35.6-29.3L404,616c8.5,0,15-5,15-13
		s-5.1-13.3-13.6-13.3l-78-0.3c-7.4-9.1-14.4-18.7-20.7-28.7l97.6,0.6c8.5,0,14.8-6.3,14.8-14.3s-6.9-14.3-15.4-14.3l-62.2,0.6
		c-8.5,0-16-6.2-16-14.3c0-8.1,6.9-14.3,15.4-14.3h161.4c8.5,0,15.1,6.2,15.1,14.3c0,8-6.3,14.3-14.8,14.3l-49.4,0.6
		c-8.5,0-15.1,6.3-15.1,14.3s6.6,14.3,15.1,14.3l123.2-0.6C584.8,561.9,591.9,568.1,591.9,576.2z"/>
</g>
<g>
	<path class="st2" d="M862,386.3c0,11-7.7,19.6-17.5,19.6l-61.9-0.8c-9.9,0-18.2,8.6-18.2,19.6s8,19.2,17.9,19.2s17.9,8.1,17.9,19.2
		c0,11-7.3,20.3-17.2,20.3l-219-0.8c-9.9,0-18.2-8.5-18.2-19.6c0-11,7-19.5,16.8-19.5l59.7-0.1c9.9,0,18.2-7.2,18.2-18.2
		S630.1,405,620.3,405l-93-0.6c-9.9,0-17.2-8.6-17.2-19.6s8-19.6,17.9-19.6l116.2,0.8c9.9,0,17.2-8.5,17.2-19.6
		c0-11-8-19.5-17.9-19.5l-72.2,0.8c-9.9,0-18.6-8.5-18.6-19.5s8-19.6,17.9-19.6h187.3c9.9,0,17.5,8.5,17.5,19.6
		c0,11-7.3,19.5-17.2,19.5l-57.4,0.8c-9.9,0-17.5,8.6-17.5,19.6s7.7,19.6,17.5,19.6l143-0.8C853.6,366.8,862,375.3,862,386.3z"/>
	<line class="st3" x1="621.3" y1="404.9" x2="620.3" y2="404.9"/>
	<line class="st3" x1="623.3" y1="443.4" x2="622.3" y2="443.4"/>
</g>
<g>
	<path class="st4" d="M640.5,275.8c8.5,0,14.8-6.9,14.8-14.9s-6.9-14-15.4-14s-15.4-6-15.4-14c0-6.8,5.3-12.4,12.1-13.9
		c1.2-0.3-1.2,0,0,0h38.3h21.9c0.8,0,0,0,0,0c8.2,0,15.8-6.4,15.8-14.3c0-7.9-6.9-14.3-15.2-14.3l-81.2,0.4c-1.7,0,1.5-0.5,0,0
		l-46.6,0.6c-8.5,0-15.1-6.3-15.1-14.3s6.6-14.3,15.1-14.3l49.4-0.6c8.5,0,14.8-6.2,14.8-14.3c0-8-6.6-14.3-15.1-14.3H457.3
		c-8.5,0-15.4,6.3-15.4,14.3s7.5,14.3,16,14.3l62.2-0.6c8.5,0,15.4,6.3,15.4,14.3s-6.3,14.3-14.8,14.3l-100.1-0.6
		c-8.5,0-15.4,6.3-15.4,14.3s6.3,14.3,14.8,14.3l43,0.3h0.9c8.5,0,15.8,6,15.8,14c0,5.6-4.4,10.2-10,12.5c-1,0.4-2,0.7-3,1h0
		c-1.5,0.4-3,0.5-4.5,0.5h0.9l-12.5,0.2c-8.5,0-14.5,6.3-14.5,14.3s7.2,14.3,15.7,14.3l29.7,0.2C651.6,276,640.5,275.9,640.5,275.8"
		/>
	<path class="st4" d="M694.8,219.1C694,219.3,695.7,219.1,694.8,219.1l-20-0.1L694.8,219.1z"/>
	<path class="st4" d="M708.5,206.5v0.2h0C708.5,206.7,708.5,206.6,708.5,206.5z"/>
</g>
</svg>
