<?xml version="1.0" encoding="utf-8"?>
<svg version="1.1" id="Layer_1" xmlns="http://www.w3.org/2000/svg" xmlns:xlink="http://www.w3.org/1999/xlink" x="0px" y="0px"
	 viewBox="0 0 800 600" enable-background="new 0 0 800 600" xml:space="preserve">
<g>
	<path fill="#FF8D61" d="M399.41,232.9l0.14,320.78c-98.75,0-184.3-55.78-226.85-137.6c-4-7.67-7.61-15.56-10.81-23.66
		c-3.05-7.67-5.73-15.52-8.03-23.55c-2.22-7.76-4.09-15.68-5.58-23.74c-2.82-15.2-4.29-30.88-4.29-46.91
		c0-65.79,24.83-125.84,65.63-171.23c0.01-0.01,0.02-0.02,0.03-0.03c7.39-8.22,15.32-15.97,23.71-23.18
		c3.93-3.38,7.98-6.65,12.12-9.77c20.72-15.73,43.89-28.37,68.84-37.23c0.02-0.01,0.03-0.01,0.06-0.02
		C341.12,47.24,369.9,42,399.86,42l-0.37,166.2L399.41,232.9z"/>
</g>
<g>
	<path fill="#FF6A5A" d="M655.41,297.78c-0.03,28.87-4.85,56.64-13.71,82.55c-8.75,25.62-21.46,49.42-37.38,70.66
		c-46.73,62.37-120.93,102.79-204.78,102.7l0.31-511.68c69.96,0.08,133.34,28.08,179.47,73.58c5.78,5.69,11.3,11.66,16.52,17.9
		C633.1,177.92,655.5,235.22,655.41,297.78z"/>
</g>
<g>
	<path fill="#B85B61" d="M341.86,357.84c0,6.65-4.66,11.84-10.58,11.84l-37.42-0.48c-5.98,0-10.99,5.2-10.99,11.84
		c0,6.66,4.83,11.61,10.82,11.61c5.98,0,10.82,4.89,10.82,11.6c0,6.65-4.42,12.27-10.41,12.27l-121.41-0.45
		c-4-7.67-7.61-15.56-10.81-23.66l35.09-0.07c5.98,0,11-4.35,11-10.99c0-6.66-6.29-12.21-12.21-12.21l-41.91-0.28
		c-2.22-7.76-4.09-15.68-5.58-23.74l66.43,0.23l116.16,0.76C336.79,346.05,341.86,351.19,341.86,357.84z"/>
</g>
<g>
	<path fill="#EAB3B0" d="M393.61,116.04c0,6.65-4.83,11.84-10.82,11.84l-74.73-0.26l-98.43-0.64c0.01-0.01,0.02-0.02,0.03-0.03
		c7.39-8.22,15.32-15.97,23.71-23.18c3.93-3.38,7.98-6.65,12.12-9.77c20.72-15.73,43.89-28.37,68.84-37.23l46.7,0.17
		c5.98,0,11,5.14,11,11.84c0,6.66-4.23,11.79-10.16,11.79l-36.08,0.07c-5.98,0-10.99,4.35-10.99,10.99c0,6.66,6.28,12.21,12.2,12.21
		l56.22,0.37C389.19,104.19,393.61,109.39,393.61,116.04z"/>
</g>
<path fill="#B85B61" d="M399.26,496.56l-36.15,0.1c-5.98,0-10.99-5.14-10.99-11.84c0-6.65,4.23-11.79,10.14-11.79l37-0.62V496.56z"
	/>
<path fill="#B85B61" d="M399.49,208.2l-0.08,24.7l-96.07-0.7c-5.99,0-11.02-5.14-11.02-11.84c0-6.65,4.24-11.79,10.16-11.79
	l36.13-0.06L399.49,208.2z"/>
<path fill="#B54E58" d="M399.42,232.9l0.08-24.7l95.48,0.83c5.98,0,10.99,5.14,10.99,11.84c0,6.65-4.23,11.79-10.14,11.79
	l-36.05,0.06L399.42,232.9z"/>
<path fill="#B85B61" d="M399.74,309.62l-35.47-0.39c-5.98,0-10.99-5.14-10.99-11.84c0-6.65,4.23-11.79,10.14-11.79l36.37,0.07
	L399.74,309.62z"/>
<path fill="#B54E58" d="M399.38,285.68l86.73,0.39c14.65,0,18.94,4.86,18.94,11.57c0,6.65-3.94,11.5-18.42,11.5l-87.37,0.49
	L399.38,285.68z"/>
<circle fill="#B85B61" cx="382.59" cy="142.98" r="13.22"/>
<path fill="#B54E58" d="M399.26,472.51l143.09-0.1c5.98,0,10.99,5.14,10.99,11.84c0,6.65-4.23,11.79-10.14,11.79l-143.94,0.62
	V472.51z"/>
<path fill="#B54E58" d="M595.85,133.49c-2.07,4.58-6.68,7.76-12.04,7.76c-7.3,0-13.22-5.92-13.22-13.22
	c0-5.73,3.64-10.61,8.74-12.44C585.11,121.28,590.63,127.25,595.85,133.49z"/>
<circle fill="#E58C8C" cx="515.97" cy="111.93" r="13.22"/>
<path fill="#E58C8C" d="M641.71,380.33c-8.75,25.62-21.46,49.42-37.38,70.66l-51.63-0.2c-5.98,0-11-5.14-11-11.84
	c0-6.66,4.23-11.79,10.16-11.79l36.08-0.07c5.98,0,10.99-4.35,10.99-10.99c0-6.66-6.28-12.21-12.2-12.21l-56.22-0.37
	c-5.98,0-10.39-5.2-10.39-11.84c0-6.65,4.83-11.84,10.82-11.84l74.73,0.26L641.71,380.33z"/>
<path fill="#B85B61" d="M284.26,464.81l21.45,0.04c5.91,0,10.14-5.14,10.14-11.79c0-6.7-5.01-11.84-10.99-11.84l-20.55-0.35
	l-33.29-0.04c-5.41,0-9.28,5.14-9.28,11.79c0,6.7,4.59,11.84,10.05,11.84L284.26,464.81z"/>
<path fill="#B85B61" d="M265.86,153.21l21.45,0.04c5.91,0,10.14-5.14,10.14-11.79c0-6.7-5.01-11.84-10.99-11.84l-20.55-0.35
	l-33.29-0.04c-5.41,0-9.28,5.14-9.28,11.79c0,6.7,4.59,11.84,10.05,11.84L265.86,153.21z"/>
<path fill="#B54E58" d="M578.62,382.03l21.45,0.04c5.91,0,10.14-5.14,10.14-11.79c0-6.7-5.01-11.84-10.99-11.84l-20.55-0.35
	l-33.29-0.04c-5.41,0-9.28,5.14-9.28,11.79c0,6.7,4.59,11.84,10.05,11.84L578.62,382.03z"/>
<path fill="#B54E58" d="M445.24,364.78l21.45,0.04c5.91,0,10.14-5.14,10.14-11.79c0-6.7-5.01-11.84-10.99-11.84l-20.55-0.35
	l-33.29-0.04c-5.41,0-9.28,5.14-9.28,11.79c0,6.7,4.59,11.84,10.05,11.84L445.24,364.78z"/>
<path fill="#B85B61" d="M285.96,313.99l-88.61-0.58c-4.52,0.05-8.39-3.87-8.39-8.95s3.55-9.04,8.07-9.04l28.54,0.37
	c4.56,0,8.39-3.97,8.39-9.04s-3.69-8.85-8.25-8.85c-4.56,0-8.25-3.73-8.25-8.85c0-5.07,3.37-9.36,7.93-9.36l100.98,0.37
	c4.56,0,8.39,3.92,8.39,9.04c0,5.07-3.23,8.99-7.75,8.99l-27.53,0.05c-4.56,0-8.39,3.32-8.39,8.39s4.8,9.31,9.31,9.31l42.88,0.28
	c4.56,0,7.93,3.97,7.93,9.04s-3.69,9.04-8.25,9.04L285.96,313.99L285.96,313.99z"/>
</svg>
