<?xml version="1.0" encoding="utf-8"?>
<!-- Generator: Adobe Illustrator 23.0.1, SVG Export Plug-In . SVG Version: 6.00 Build 0)  -->
<svg version="1.1" id="Layer_1" xmlns="http://www.w3.org/2000/svg" xmlns:xlink="http://www.w3.org/1999/xlink" x="0px" y="0px"
	 viewBox="0 0 1366 768" style="enable-background:new 0 0 1366 768;" xml:space="preserve">
<style type="text/css">
	.st0{display:none;fill:#145BAF;}
	.st1{fill:#055BAF;}
	.st2{fill:#8C4444;}
	.st3{fill:#D16A46;}
	.st4{fill:#CE8A46;}
	.st5{fill:#DDCFC3;}
	.st6{fill:#2F70B2;}
	.st7{fill:#5FD4FF;}
	.st8{fill:#FFFFFF;}
	.st9{display:none;}
	.st10{display:inline;fill:#FFFFFF;}
	.st11{display:inline;fill:none;}
	.st12{display:inline;fill-rule:evenodd;clip-rule:evenodd;fill:#5FD4FF;}
	.st13{fill-rule:evenodd;clip-rule:evenodd;fill:#5FD4FF;}
</style>
<path class="st0" d="M1008.5,386.9v0.6c0,74.2-21.5,143.4-58.7,201.6c-7.8,12.3-16.4,24-25.5,35.3c-9.8,12.2-20.6,23.6-31.8,34.5
	c-13.7,13-28.3,25.1-43.8,36.1c-61,42.8-135.4,68.1-215.6,68.1V12c71.2,0,137.7,19.8,194.3,54.2c15.8,9.6,30.9,20.3,45.1,32.1
	c2.6,2.2,5.2,4.4,7.8,6.6c24.7,21.7,46.6,46.5,64.9,74c9.1,13.7,17.5,27.9,24.7,42.8c0.6,1.2,1.2,2.4,1.8,3.7
	c5.8,12.2,11,24.7,15.6,37.6C1001,301.7,1008.4,343.4,1008.5,386.9z"/>
<path class="st1" d="M989.8,263.4c-4.6-12.9-9.8-25.4-15.6-37.6c-0.6-1.3-1.2-2.5-1.8-3.7c-7.2-14.9-15.6-29.1-24.7-42.8
	c-18.3-27.5-40.2-52.3-64.9-74c-2.6-2.2-5.2-4.4-7.8-6.6c-14.2-11.8-29.3-22.5-45.1-32.1c-56.6-34.4-123.1-54.2-194.3-54.2v12
	c69.2,0,133.9,19.1,188.9,52.3c15.4,9.3,30,19.6,43.9,31c2.5,2.1,5.1,4.2,7.6,6.4c24,20.9,45.3,44.8,63.1,71.4
	c8.8,13.2,17,26.9,24,41.3c0.6,1.2,1.2,2.3,1.8,3.6c5.6,11.8,10.7,23.8,15.2,36.3c13.3,37.3,20.5,77.5,20.6,119.5v0.6
	c0,71.6-20.9,138.3-57.1,194.4c-7.6,11.9-15.9,23.1-24.8,34c-9.5,11.8-20,22.8-30.9,33.3c-13.3,12.5-27.5,24.2-42.6,34.8
	C786,724.6,713.7,749,635.7,749v14.8c80.2,0,154.6-25.3,215.6-68.1c15.5-11,30.1-23.1,43.8-36.1c11.2-10.9,22-22.3,31.8-34.5
	c9.1-11.3,17.7-23,25.5-35.3c37.2-58.2,58.7-127.4,58.7-201.6v-0.6C1010.9,343.8,1003.5,302.1,989.8,263.4z"/>
<path class="st2" d="M980,266.6c-4.5-12.6-9.5-24.8-15.2-36.6c-0.6-1.3-1.2-2.4-1.8-3.6c-7-14.5-15.2-28.4-24-41.7
	c-17.8-26.8-39.1-51-63.1-72.1c-2.5-2.1-5.1-4.3-7.6-6.4c-13.8-11.5-28.5-21.9-43.9-31.3c-55-33.5-119.7-52.8-188.9-52.8v52.3
	c59.3,0,114.7,16.5,161.9,45.3c13.2,8,25.7,17,37.6,26.8c2.2,1.8,4.3,3.7,6.5,5.5c20.6,18.1,38.8,38.8,54.1,61.8
	c7.6,11.4,14.6,23.3,20.6,35.7c0.5,1,1,2,1.5,3.1c4.8,10.2,9.2,20.6,13,31.4c11.4,32.3,17.6,67.1,17.7,103.5v0.5
	c0,62-17.9,119.8-48.9,168.4c-6.5,10.3-13.7,20-21.2,29.5c-8.2,10.2-17.2,19.7-26.5,28.8c-11.4,10.9-23.6,21-36.5,30.2
	c-50.8,35.7-112.8,56.9-179.6,56.9v52.3c78,0,150.3-24.7,209.6-66.4c15.1-10.7,29.3-22.5,42.6-35.2c10.9-10.6,21.4-21.7,30.9-33.6
	c8.8-11,17.2-22.4,24.8-34.4c36.2-56.7,57.1-124.2,57.1-196.5v-0.6C1000.5,344.9,993.3,304.3,980,266.6z"/>
<path class="st3" d="M635.6,595v107.2c67.1,0,129.4-21.2,180.4-57c13-9.2,25.2-19.3,36.6-30.2c9.4-9.1,18.4-18.7,26.6-28.9
	c7.6-9.5,14.8-19.2,21.3-29.5c31.1-48.7,49.1-106.6,49.1-168.7v-0.5c-0.1-36.4-6.3-71.3-17.7-103.7c-3.8-10.8-8.2-21.3-13.1-31.5
	c-0.5-1.1-1-2.1-1.5-3.1c-6-12.5-13.1-24.3-20.7-35.8c-15.3-23-33.6-43.8-54.3-61.9c-2.2-1.8-4.4-3.7-6.5-5.5
	c-11.9-9.9-24.5-18.8-37.7-26.9c-47.4-28.8-103-45.3-162.6-45.3v115.4h0.2c38.5,0,74.4,10.7,105,29.3c8.5,5.2,16.7,11,24.4,17.3
	c1.4,1.2,2.8,2.4,4.2,3.6c13.3,11.7,25.2,25.1,35.1,40c4.9,7.4,9.5,15.1,13.3,23.1c0.3,0.6,0.6,1.3,1,2c3.1,6.6,5.9,13.3,8.4,20.3
	c7.4,20.9,11.4,43.4,11.5,67v0.3c0,40.1-11.6,77.5-31.7,108.9c-4.2,6.6-8.9,13-13.8,19.1c-5.3,6.6-11.1,12.8-17.2,18.6
	c-7.4,7-15.3,13.6-23.7,19.5C719.3,581.3,678.9,595,635.6,595"/>
<path class="st4" d="M635.6,526.6v69.6c43.6,0,84-13.7,117.2-37c8.4-6,16.4-12.5,23.8-19.6c6.1-5.9,12-12.1,17.3-18.7
	c4.9-6.1,9.6-12.5,13.9-19.2c20.2-31.6,31.9-69.2,31.9-109.5v-0.3c-0.1-23.6-4.1-46.3-11.5-67.3c-2.5-7-5.3-13.8-8.5-20.4
	c-0.3-0.7-0.7-1.4-1-2c-3.9-8.1-8.5-15.8-13.4-23.2c-9.9-14.9-21.9-28.4-35.3-40.2c-1.4-1.2-2.8-2.4-4.2-3.6
	c-7.7-6.4-15.9-12.2-24.5-17.4c-30.8-18.7-66.9-29.4-105.6-29.4v74.9h0.1c25,0,48.3,6.9,68.2,19c5.5,3.4,10.8,7.1,15.8,11.3
	c0.9,0.8,1.8,1.5,2.7,2.3c8.7,7.6,16.4,16.3,22.8,26c3.2,4.8,6.1,9.8,8.7,15c0.2,0.4,0.4,0.8,0.6,1.3c2,4.3,3.9,8.7,5.5,13.2
	c4.8,13.6,7.4,28.2,7.4,43.5v0.2c0,26-7.5,50.3-20.6,70.7c-2.7,4.3-5.8,8.4-9,12.4c-3.4,4.3-7.2,8.3-11.2,12.1
	c-4.8,4.6-9.9,8.8-15.4,12.7C690,517.7,663.8,526.6,635.6,526.6"/>
<path class="st5" d="M767.3,395.5c0,72.6-57.8,131.5-129.1,131.5s-12-58.9-12-131.5S566.9,264,638.2,264S767.3,322.9,767.3,395.5z"
	/>
<path class="st6" d="M635.6,12v751c-80.2,0-154.6-25.2-215.6-68.1c-15.5-11-30.2-23-43.8-36.1c-11.2-10.8-21.9-22.3-31.8-34.5
	c-9.1-11.3-17.7-23-25.5-35.3c-37.2-58.2-58.7-127.4-58.7-201.6v-0.6c0.1-43.4,7.5-85.2,21.2-123.9c5-14.2,10.8-27.9,17.4-41.2
	c7.3-14.9,15.6-29.2,24.7-42.8c17.8-26.6,38.9-50.8,62.7-72c9.1-8.1,18.6-15.8,28.4-23c13.3-9.7,27.2-18.5,41.7-26.4
	c19.8-10.8,40.7-19.9,62.5-27C555.5,18.5,594.8,12,635.6,12z"/>
<path class="st7" d="M370.4,485.1c0-9-6.5-15.7-14.6-15.7s-14.6-6.6-14.6-15.7c0-9,6-16.6,14.1-16.6l75.9,0.3
	c6.8-1.1,11.7-7.3,11.7-15c0-8.5-6.2-15.2-14-15.2l-114.4,0.6c-7.8,0.1-14.6-6.5-14.6-15.1c0-8.5,6.2-15.2,14-15.2l49.5,0.6
	c7.9,0,14.6-6.7,14.6-15.2c0-8.6-6.4-14.9-14.3-14.9s-14.3-6.3-14.3-14.9s5.8-15.8,13.8-15.8l175.2,0.6c7.9,0,14.6,6.6,14.6,15.2
	s-5.6,15.2-13.4,15.2l-47.8,0.1c-7.9,0-14.6,5.6-14.6,14.1c0,8.6,8.3,15.7,16.2,15.7l74.4,0.5c7.9,0,13.8,6.7,13.8,15.2
	s-6.4,15.2-14.3,15.2l-93-0.6c-7.9,0-13.8,6.6-13.8,15.2c0,6.3,3.5,11.5,8.5,13.9l65.4,0.2c8.1,0,14.9,7,14.9,16s-5.7,16-13.7,16
	l-48.8,0.1c-8.1,0-14.9,5.9-14.9,14.9s8.5,16.5,16.5,16.5l76,0.5c0.4,0,0.8,0,1.1,0.1l45.4,0.2c8.1,0,14.9,7,14.9,16
	c0,9-5.7,15.9-13.7,15.9l-48.8,0.1c-8.1,0-14.9,5.9-14.9,14.9s8.5,16.5,16.5,16.5l56.5-1.3c8.1,0,14.1,7,14.1,16s-6.5,16-14.6,16
	l-75.5,1.2c-8.1,0-14.1,6.9-14.1,16c0,9,6.5,15.9,14.6,15.9l59-0.7c8.1,0,15.2,6.9,15.2,15.9s-6.5,16-14.6,16H452.4
	c-8.1,0-14.3-7-14.3-16s6-15.9,14.1-15.9L499,628c8.1,0,14.3-7,14.3-16c0-7.6-4.5-13.8-10.7-15.5c-1.2-0.3-2.4-0.5-3.7-0.5
	l-90.4,0.5h-32.8c-8.1,0-14.3-7-14.3-16s6-15.9,14.1-15.9l46.9-0.7c8.1,0,14.3-7,14.3-16c0-6.9-3.7-12.7-9.1-15
	c-0.3-0.1-0.6-0.2-0.9-0.3c0,0,0,0-0.1,0c-1.3-0.5-2.7-0.7-4.2-0.7l-116.9,0.7c-8,0.1-14.9-6.9-14.9-15.9s6.3-16,14.3-16l50.6,0.7
	C363.6,501.2,370.4,494.1,370.4,485.1z"/>
<g>
	<g>
		<g>
			<path class="st8" d="M494.2,284.9c0,11.7-10.5,20.8-23.9,20.8l-84.4-0.9c-13.4,0-24.9,9.1-24.9,20.8c0,11.7,11,20.4,24.4,20.4
				s24.4,8.7,24.4,20.4c0,11.7-10,21.7-23.4,21.7H259c0-43.4,7.5-85.2,21.2-123.9c2.1,0.5,4.4,0.9,7,0.9l182.2-1
				C482.7,264.1,494.2,273.2,494.2,284.9z"/>
			<path class="st8" d="M376,201.4c0,11.7-10,20.8-23.4,20.8l-55.1,0.7c7.3-14.9,15.6-29.2,24.7-42.8l29.9,0.4
				C365.6,180.6,376,189.7,376,201.4z"/>
		</g>
	</g>
</g>
<g class="st9">
	<path class="st10" d="M668.7,609.3c0,3.1-0.7,5.9-2.2,8.4c-3.1,5.5-9.2,9.2-16.4,9.2l-63-0.6h-2.6c-10.5,0-19.3,7.8-19.3,17.6
		s8.5,17.2,19,17.2s19,7.4,19,17.2c0,10-7.8,18.3-18.2,18.3l-166.2-0.5c-15.5-10.8-30.2-22.9-43.8-36.1l62.5-1.8
		c10.5,0,18.5-6.2,18.5-16s-6.3-16.4-16.7-16.4l-96-0.4c-9.1-11.2-17.7-23-25.5-35.3l120.1,0.7c10.5,0,18.2-7.8,18.2-17.6
		s-8.5-17.6-19-17.6l-76.6,0.7c-10.5,0-19.7-7.6-19.7-17.6s8.5-17.6,19-17.6h198.6c10.5,0,18.6,7.6,18.6,17.6
		c0,9.8-7.8,17.6-18.2,17.6L498,557c-10.5,0-18.6,7.8-18.6,17.6s8.1,17.6,18.6,17.6l151.6-0.7C660,591.7,668.7,599.3,668.7,609.3z"
		/>
</g>
<g class="st9">
	<path class="st10" d="M793.7,81.2c0-9,6.5-16,14.6-16h19.2c15.8,9.6,30.9,20.3,45.1,32.1c-1.5-0.5-3-0.8-4.7-0.8l-59,0.7
		C800.8,97.1,793.7,90.2,793.7,81.2z"/>
	<path class="st10" d="M971.8,224.4l-168.9-0.6c-8.1,0-14.9-7-14.9-16s5.7-15.9,13.7-15.9l48.8-0.1c8.1,0,14.9-5.9,14.9-14.9
		s-8.5-16.5-16.5-16.5l-76-0.5c-8.1,0-14.1-7-14.1-16s6.5-16,14.6-16l95,0.7c8.1,0,14.1-6.9,14.1-16c0-3.2-0.8-6-2.2-8.5
		c24.7,21.7,46.6,46.5,64.9,74c9.1,13.7,17.5,27.9,24.7,42.8C970.6,221.9,971.2,223.1,971.8,224.4z"/>
	<line class="st11" x1="849.8" y1="160.2" x2="848.9" y2="160.2"/>
	<line class="st11" x1="851.4" y1="191.7" x2="850.6" y2="191.7"/>
</g>
<g class="st9">
	<path class="st12" d="M583.3,85C581.6,85,584.7,84.5,583.3,85L583.3,85z"/>
	<path class="st12" d="M675,98.2c0,7.4-7,13.4-14.7,13.6h-57.7c-6.5,1.4-11.5,6.8-11.5,13.2c0,7.6,6.6,13.3,14.7,13.3
		c8.1,0,14.7,5.7,14.7,13.3s-6,14.2-14.1,14.2c0,0.1,10.6,0.2-151.4-0.3l-28.3-0.2c-8.1,0-14.9-6-14.9-13.6s5.7-13.6,13.8-13.6
		l11.9-0.2h-0.9c1.4,0,2.9-0.1,4.3-0.5c0.9-0.3,1.9-0.6,2.9-1c5.3-2.2,9.5-6.6,9.5-11.9c0-7.6-7-13.3-15.1-13.3h-0.8l-40.9-0.3
		c-4.2,0-7.8-1.6-10.3-4.2c9.1-8.1,18.6-15.8,28.4-23l77.8,0.5c8.1,0,14.1-6,14.1-13.6S499.9,57,491.8,57l-35.5,0.3
		c19.8-10.8,40.7-19.9,62.5-27h66.9c8.1,0,14.4,6,14.4,13.6c0,7.7-6,13.6-14.1,13.6l-47,0.6c-8.1,0-14.4,6-14.4,13.6
		s6.3,13.6,14.4,13.6l44.4-0.6l52.4-0.3l25-0.1C668.5,84.6,675,90.7,675,98.2z"/>
	<path class="st12" d="M658.1,111.9C657.3,112.1,658.9,111.9,658.1,111.9l-19-0.1L658.1,111.9z"/>
	<path class="st12" d="M671.1,100v0.2l0,0C671.1,100.1,671.1,100,671.1,100z"/>
</g>
<path class="st13" d="M635.8,97.8c0,7.4-7,13.4-14.7,13.6H603c-6.5,1.4-11.5,6.8-11.5,13.2c0,7.6,6.6,13.3,14.7,13.3
	c8.1,0,14.7,5.7,14.7,13.3s-6,14.2-14.1,14.2c0,0.1,10.6,0.2-151.4-0.3l-28.3-0.2c-8.1,0-14.9-6-14.9-13.6s5.7-13.6,13.8-13.6
	l11.9-0.2H437c1.4,0,2.9-0.1,4.3-0.5c0.9-0.3,1.9-0.6,2.9-1c5.3-2.2,9.5-6.6,9.5-11.9c0-7.6-7-13.3-15.1-13.3h-0.8l-40.9-0.3
	c-4.2,0-7.8-1.6-10.3-4.2c9.1-8.1,18.6-15.8,28.4-23l77.8,0.5c8.1,0,14.1-6,14.1-13.6s-6.6-13.6-14.7-13.6l-35.5,0.3
	c19.8-10.8,40.7-19.9,62.5-27h66.9c8.1,0,14.4,6,14.4,13.6c0,7.7-6,13.6-14.1,13.6l-47,0.6c-8.1,0-14.4,6-14.4,13.6
	s6.3,13.6,14.4,13.6l44.4-0.6l38.4-0.2l-0.6-0.1C629.3,84.2,635.8,90.3,635.8,97.8z"/>
<g>
	<path class="st8" d="M635.6,609c0,3.1-0.7,5.9-2.2,8.4c-3.1,5.5-9.2,9.2-16.4,9.2l-29.9-0.3h-2.6c-10.5,0-19.3,7.8-19.3,17.6
		s8.5,17.2,19,17.2s19,7.4,19,17.2c0,10-7.8,18.3-18.2,18.3l-166.2-0.5c-15.5-10.8-30.2-22.9-43.8-36.1l62.5-1.8
		c10.5,0,18.5-6.2,18.5-16s-6.3-16.4-16.7-16.4l-96-0.4c-9.1-11.2-17.7-23-25.5-35.3l120.1,0.7c10.5,0,18.2-7.8,18.2-17.6
		s-8.5-17.6-19-17.6l-76.6,0.7c-10.5,0-19.7-7.6-19.7-17.6s8.5-17.6,19-17.6h198.6c10.5,0,18.6,7.6,18.6,17.6
		c0,9.8-7.8,17.6-18.2,17.6L498,557c-10.5,0-18.6,7.8-18.6,17.6s8.1,17.6,18.6,17.6l118.5-1C626.9,591.4,635.6,599,635.6,609z"/>
</g>
</svg>
