<?xml version="1.0" encoding="utf-8"?>
<!-- Generator: Adobe Illustrator 23.0.1, SVG Export Plug-In . SVG Version: 6.00 Build 0)  -->
<svg version="1.1" id="Layer_1" xmlns="http://www.w3.org/2000/svg" xmlns:xlink="http://www.w3.org/1999/xlink" x="0px" y="0px"
	 viewBox="0 0 1366 768" style="enable-background:new 0 0 1366 768;" xml:space="preserve">
<style type="text/css">
	.st0{fill:#2F70B2;}
	.st1{fill:#145BAF;}
	.st2{fill:#5FD4FF;}
	.st3{fill:#FFFFFF;}
	.st4{fill:none;}
	.st5{fill-rule:evenodd;clip-rule:evenodd;fill:#5FD4FF;}
</style>
<path class="st0" d="M635.6,12v751c-80.2,0-154.6-25.2-215.6-68.1c-15.5-11-30.2-23-43.8-36.1c-11.2-10.8-21.9-22.3-31.8-34.5
	c-9.1-11.3-17.7-23-25.5-35.3c-37.2-58.2-58.7-127.4-58.7-201.6v-0.6c0.1-43.4,7.5-85.2,21.2-123.9c5-14.2,10.8-27.9,17.4-41.2
	c7.3-14.9,15.6-29.2,24.7-42.8c17.8-26.6,38.9-50.8,62.7-72c9.1-8.1,18.6-15.8,28.4-23c13.3-9.7,27.2-18.5,41.7-26.4
	c19.8-10.8,40.7-19.9,62.5-27C555.5,18.5,594.8,12,635.6,12z"/>
<path class="st1" d="M1008.5,386.9v0.6c0,74.2-21.5,143.4-58.7,201.6c-7.8,12.3-16.4,24-25.5,35.3c-9.8,12.2-20.6,23.6-31.8,34.5
	c-13.7,13-28.3,25.1-43.8,36.1c-61,42.8-135.4,68.1-215.6,68.1V12c71.2,0,137.7,19.8,194.3,54.2c15.8,9.6,30.9,20.3,45.1,32.1
	c2.6,2.2,5.2,4.4,7.8,6.6c24.7,21.7,46.6,46.5,64.9,74c9.1,13.7,17.5,27.9,24.7,42.8c0.6,1.2,1.2,2.4,1.8,3.7
	c5.8,12.2,11,24.7,15.6,37.6C1001,301.7,1008.4,343.4,1008.5,386.9z"/>
<g>
	<path class="st2" d="M371.4,485.1c0-9-6.5-15.7-14.6-15.7c-8.1,0-14.6-6.6-14.6-15.7c0-9,6-16.6,14.1-16.6l75.9,0.3
		c6.8-1.1,11.7-7.3,11.7-15c0-8.5-6.2-15.2-14-15.2l-114.4,0.6c-7.8,0.1-14.6-6.5-14.6-15.1c0-8.5,6.2-15.2,14-15.2l49.5,0.6
		c7.9,0,14.6-6.7,14.6-15.2c0-8.6-6.4-14.9-14.3-14.9c-7.9,0-14.3-6.3-14.3-14.9c0-8.6,5.8-15.8,13.8-15.8l175.2,0.6
		c7.9,0,14.6,6.6,14.6,15.2c0,8.6-5.6,15.2-13.4,15.2l-47.8,0.1c-7.9,0-14.6,5.6-14.6,14.1c0,8.6,8.3,15.7,16.2,15.7l74.4,0.5
		c7.9,0,13.8,6.7,13.8,15.2c0,8.5-6.4,15.2-14.3,15.2l-93-0.6c-7.9,0-13.8,6.6-13.8,15.2c0,6.3,3.5,11.5,8.5,13.9l65.4,0.2
		c8.1,0,14.9,7,14.9,16c0,9-5.7,16-13.7,16l-48.8,0.1c-8.1,0-14.9,5.9-14.9,14.9c0,9,8.5,16.5,16.5,16.5l76,0.5c0.4,0,0.8,0,1.1,0.1
		l45.4,0.2c8.1,0,14.9,7,14.9,16c0,9-5.7,15.9-13.7,15.9l-48.8,0.1c-8.1,0-14.9,5.9-14.9,14.9c0,9,8.5,16.5,16.5,16.5l76,0.5
		c8.1,0,14.1,7,14.1,16c0,9-6.5,16-14.6,16l-95-0.6c-8.1,0-14.1,6.9-14.1,16c0,9,6.5,15.9,14.6,15.9l59-0.7
		c8.1,0,15.2,6.9,15.2,15.9c0,9-6.5,16-14.6,16l-153.1,0c-8.1,0-14.3-7-14.3-16c0-9,6-15.9,14.1-15.9L500,628c8.1,0,14.3-7,14.3-16
		c0-7.6-4.5-13.8-10.7-15.5c-1.2-0.3-2.4-0.5-3.7-0.5l-90.4,0.5l-32.8,0c-8.1,0-14.3-7-14.3-16c0-9,6-15.9,14.1-15.9l46.9-0.7
		c8.1,0,14.3-7,14.3-16c0-6.9-3.7-12.7-9.1-15c-0.3-0.1-0.6-0.2-0.9-0.3c0,0,0,0-0.1,0c-1.3-0.5-2.7-0.7-4.2-0.7l-116.9,0.7
		c-8,0.1-14.9-6.9-14.9-15.9c0-9,6.3-16,14.3-16l50.6,0.7C364.6,501.2,371.4,494.1,371.4,485.1z"/>
	<line class="st2" x1="493.4" y1="378.3" x2="494.2" y2="378.3"/>
	<line class="st2" x1="491.8" y1="348.3" x2="492.6" y2="348.3"/>
</g>
<g>
	<path class="st2" d="M921.9,368.1c0,9,6.5,15.7,14.6,15.7c8.1,0,14.6,6.6,14.6,15.7c0,9-6,16.6-14.1,16.6l-75.9-0.3
		c-6.8,1.1-11.7,7.3-11.7,15c0,8.5,6.2,15.2,14,15.2l114.4-0.6c7.8-0.1,14.6,6.5,14.6,15.1c0,8.5-6.2,15.2-14,15.2l-49.5-0.6
		c-7.9,0-14.6,6.7-14.6,15.2c0,8.6,6.4,14.9,14.3,14.9c7.9,0,14.3,6.3,14.3,14.9c0,8.6-5.8,15.8-13.8,15.8l-175.2-0.6
		c-7.9,0-14.6-6.6-14.6-15.2c0-8.6,5.6-15.2,13.4-15.2l47.8-0.1c7.9,0,14.6-5.6,14.6-14.1c0-8.6-8.3-15.7-16.2-15.7l-74.4-0.5
		c-7.9,0-13.8-6.7-13.8-15.2c0-8.5,6.4-15.2,14.3-15.2l93,0.6c7.9,0,13.8-6.6,13.8-15.2c0-6.3-3.5-11.5-8.5-13.9l-65.4-0.2
		c-8.1,0-14.9-7-14.9-16c0-9,5.7-16,13.7-16l48.8-0.1c8.1,0,14.9-5.9,14.9-14.9c0-9-8.5-16.5-16.5-16.5l-76-0.5
		c-0.4,0-0.8,0-1.1-0.1l-45.4-0.2c-8.1,0-14.9-7-14.9-16c0-9,5.7-15.9,13.7-15.9l48.8-0.1c8.1,0,14.9-5.9,14.9-14.9
		s-8.5-16.5-16.5-16.5l-76-0.5c-8.1,0-14.1-7-14.1-16c0-9,6.5-16,14.6-16l95,0.7c8.1,0,14.1-6.9,14.1-16c0-9-6.5-15.9-14.6-15.9
		l-59,0.7c-8.1,0-15.2-6.9-15.2-15.9s6.5-16,14.6-16h153.1c8.1,0,14.3,7,14.3,16c0,9-6,15.9-14.1,15.9l-46.9,0.7
		c-8.1,0-14.3,7-14.3,16c0,7.6,4.5,13.8,10.7,15.5c1.2,0.3,2.4,0.5,3.7,0.5l90.4-0.5h32.8c8.1,0,14.3,7,14.3,16
		c0,9-6,15.9-14.1,15.9l-46.9,0.7c-8.1,0-14.3,7-14.3,16c0,6.9,3.7,12.7,9.1,15c0.3,0.1,0.6,0.2,0.9,0.3c0,0,0,0,0.1,0
		c1.3,0.5,2.7,0.7,4.2,0.7l116.9-0.7c8-0.1,14.9,6.9,14.9,15.9c0,9-6.3,16-14.3,16l-50.6-0.7C928.7,352.1,921.9,359.1,921.9,368.1z"
		/>
	<line class="st2" x1="799.9" y1="475" x2="799.1" y2="475"/>
	<line class="st2" x1="801.5" y1="505" x2="800.7" y2="505"/>
</g>
<path class="st3" d="M761.4,559.8c-10,0-18.1,8.1-18.1,18.1c0,10,8.1,18.1,18.1,18.1c9.6,0,96.2,0,96.2,0c10,0,18.6-8.1,18.6-18.1
	c0-10-8.5-18.1-18.6-18.1h-97.1H761.4z"/>
<g>
	<g>
		<g>
			<path class="st3" d="M494.2,284.9c0,11.7-10.5,20.8-23.9,20.8l-84.4-0.9c-13.4,0-24.9,9.1-24.9,20.8c0,11.7,11,20.4,24.4,20.4
				s24.4,8.7,24.4,20.4c0,11.7-10,21.7-23.4,21.7H259c0-43.4,7.5-85.2,21.2-123.9c2.1,0.5,4.4,0.9,7,0.9l182.2-1
				C482.7,264.1,494.2,273.2,494.2,284.9z"/>
			<path class="st3" d="M376,201.4c0,11.7-10,20.8-23.4,20.8l-55.1,0.7c7.3-14.9,15.6-29.2,24.7-42.8l29.9,0.4
				C365.6,180.6,376,189.7,376,201.4z"/>
		</g>
	</g>
</g>
<g>
	<path class="st3" d="M668.7,609.3c0,3.1-0.7,5.9-2.2,8.4c-3.1,5.5-9.2,9.2-16.4,9.2l-63-0.6h-2.6c-10.5,0-19.3,7.8-19.3,17.6
		c0,9.8,8.5,17.2,19,17.2c10.5,0,19,7.4,19,17.2c0,10-7.8,18.3-18.2,18.3l-166.2-0.5c-15.5-10.8-30.2-22.9-43.8-36.1l62.5-1.8
		c10.5,0,18.5-6.2,18.5-16s-6.3-16.4-16.7-16.4l-96-0.4c-9.1-11.2-17.7-23-25.5-35.3l120.1,0.7c10.5,0,18.2-7.8,18.2-17.6
		s-8.5-17.6-19-17.6l-76.6,0.7c-10.5,0-19.7-7.6-19.7-17.6c0-10,8.5-17.6,19-17.6h198.6c10.5,0,18.6,7.6,18.6,17.6
		c0,9.8-7.8,17.6-18.2,17.6l-60.8,0.7c-10.5,0-18.6,7.8-18.6,17.6s8.1,17.6,18.6,17.6l151.6-0.7C660,591.7,668.7,599.3,668.7,609.3z
		"/>
</g>
<g>
	<path class="st3" d="M793.7,81.2c0-9,6.5-16,14.6-16h19.2c15.8,9.6,30.9,20.3,45.1,32.1c-1.5-0.5-3-0.8-4.7-0.8l-59,0.7
		C800.8,97.1,793.7,90.2,793.7,81.2z"/>
	<path class="st3" d="M971.8,224.4l-168.9-0.6c-8.1,0-14.9-7-14.9-16c0-9,5.7-15.9,13.7-15.9l48.8-0.1c8.1,0,14.9-5.9,14.9-14.9
		c0-9-8.5-16.5-16.5-16.5l-76-0.5c-8.1,0-14.1-7-14.1-16c0-9,6.5-16,14.6-16l95,0.7c8.1,0,14.1-6.9,14.1-16c0-3.2-0.8-6-2.2-8.5
		c24.7,21.7,46.6,46.5,64.9,74c9.1,13.7,17.5,27.9,24.7,42.8C970.6,221.9,971.2,223.1,971.8,224.4z"/>
	<line class="st4" x1="849.8" y1="160.2" x2="848.9" y2="160.2"/>
	<line class="st4" x1="851.4" y1="191.7" x2="850.6" y2="191.7"/>
</g>
<g>
	<path class="st5" d="M583.3,85C581.6,85,584.7,84.5,583.3,85L583.3,85z"/>
	<path class="st5" d="M675,98.2c0,7.4-7,13.4-14.7,13.6h-57.7c-6.5,1.4-11.5,6.8-11.5,13.2c0,7.6,6.6,13.3,14.7,13.3
		c8.1,0,14.7,5.7,14.7,13.3c0,7.6-6,14.2-14.1,14.2c0,0.1,10.6,0.2-151.4-0.3l-28.3-0.2c-8.1,0-14.9-6-14.9-13.6
		c0-7.6,5.7-13.6,13.8-13.6l11.9-0.2h-0.9c1.4,0,2.9-0.1,4.3-0.5c0.9-0.3,1.9-0.6,2.9-1c5.3-2.2,9.5-6.6,9.5-11.9
		c0-7.6-7-13.3-15.1-13.3h-0.8l-40.9-0.3c-4.2,0-7.8-1.6-10.3-4.2c9.1-8.1,18.6-15.8,28.4-23l77.8,0.5c8.1,0,14.1-6,14.1-13.6
		s-6.6-13.6-14.7-13.6l-35.5,0.3c19.8-10.8,40.7-19.9,62.5-27h66.9c8.1,0,14.4,6,14.4,13.6c0,7.7-6,13.6-14.1,13.6l-47,0.6
		c-8.1,0-14.4,6-14.4,13.6s6.3,13.6,14.4,13.6l44.4-0.6l52.4-0.3l25-0.1C668.5,84.6,675,90.7,675,98.2z"/>
	<path class="st5" d="M658.1,111.9C657.3,112.1,658.9,111.9,658.1,111.9l-19-0.1L658.1,111.9z"/>
	<path class="st5" d="M671.1,100v0.2l0,0C671.1,100.1,671.1,100,671.1,100z"/>
</g>
</svg>
