<?xml version="1.0" encoding="utf-8"?>
<!-- Generator: Adobe Illustrator 23.0.1, SVG Export Plug-In . SVG Version: 6.00 Build 0)  -->
<svg version="1.1" id="Layer_1" xmlns="http://www.w3.org/2000/svg" xmlns:xlink="http://www.w3.org/1999/xlink" x="0px" y="0px"
	 viewBox="0 0 800 600" style="enable-background:new 0 0 800 600;" xml:space="preserve">
<style type="text/css">
	.st0{fill:#DB8867;}
	.st1{fill:#EAC77A;}
	.st2{fill:#BC5835;}
</style>
<path class="st0" d="M691.9,248.7c-5.6-30.6-16-59.6-30.3-86c-139.1,0-100.3-42.5-251.6-32.8c-100.7,0-182.2-26-182.2-58.1
	c-23.3,18.2-43.8,39.8-60.6,64.1c157.6,0,63.4,63.5,251.2,70.3C558.5,206.2,578.4,260.4,691.9,248.7z"/>
<path class="st1" d="M272.4,212c47.6,0,80.5,51.3,180,51.3c63.3,0,109,38,243.8,38c0-17.9-1.6-35.4-4.7-52.4
	c-113.5,11.6-133.4-42.5-273.6-42.5c-187.8-6.8-93.6-70.3-251.2-70.3c-7.1,10.2-13.5,20.9-19.3,32.1
	C147.3,192.3,171.4,212,272.4,212z"/>
<g>
	<path class="st0" d="M456.8,68.6c87.9,4.5,81.7,59.7,182.7,59.7c-53-71.1-137.7-117.1-233.1-117.1c-38.8,0-75.8,7.6-109.6,21.4
		C296.7,52.5,409.2,68.6,456.8,68.6z"/>
	<path class="st1" d="M639.5,128.2c-101,0-94.8-55.1-182.7-59.7c-47.6,0-160.1-16.1-160.1-36C271.9,42.6,248.8,56,228,72.3
		c0,32.1,81.5,58.1,182.2,58.1c151.4-9.8,112.5,32.8,251.6,32.8C655.2,150.9,647.7,139.2,639.5,128.2z"/>
</g>
<path class="st2" d="M452.4,262.6c-99.5,0-132.4-51.3-180-51.3c-101,0-125.1-19.7-125.1-44c-11.7,22.6-20.4,46.8-25.9,72.4
	c0,51.1,117.8,92.4,263.4,92.4c194.1,12,134.4,47,300.5,47c7-25,10.8-51.4,10.8-78.7C561.4,300.6,515.7,262.6,452.4,262.6z"/>
<path class="st0" d="M275.3,476.4c-69.8-49.1-52.5-80.6-139.5-67.6c43.1,106.5,147.5,181.6,269.4,181.6c79.7,0,151.9-32.1,204.4-84
	C545.1,509.6,330.7,518.3,275.3,476.4z"/>
<g>
	<path class="st0" d="M384.5,331.6c-145.6,0-263.4-41.3-263.4-92.4c-4.2,19.6-6.4,40-6.4,60.8c0,21.4,2.3,42.3,6.7,62.5
		c0,11.7,175.3-27.6,264.1,21.2c70.5,31.4,78.8,90,259.8,80c17.5-25.7,31.1-54.3,39.7-85C518.9,378.6,578.6,343.6,384.5,331.6z"/>
	<path class="st1" d="M385.5,383.6c-88.8-48.8-264.1-9.5-264.1-21.2c3.5,16,8.3,31.5,14.4,46.5c87-12.9,69.7,18.4,139.5,67.5
		c55.5,41.9,269.8,33.3,334.3,30c13.2-13.1,25.2-27.4,35.7-42.8C464.3,473.6,456,415,385.5,383.6z"/>
</g>
<path class="st2" d="M272.2,447.1c56.2,21.6,90,46.8,126.7,17.6c46.8-44.4-77.9-57.9-142-81.1C179.8,367.5,193.2,413.5,272.2,447.1z
	"/>
<path class="st2" d="M427.8,487.2c16.8,9.5,27.1,11,38-1.5c13.8-19-6.6-20.8-17.7-22.9C425.1,455.7,404.2,472.5,427.8,487.2z"/>
<path class="st2" d="M262.8,93.6c0.7-3.4,4.3-6.1,7.5-4.9c57.9,21.5,108.9,19.9,119.7,21.9c3.4,0.6,5.9,3.8,5.3,7.2
	c-0.6,3.5-3.9,5.8-7.3,5.1c0,0-88.3-5.3-120.1-22C264.7,99.3,262.1,97,262.8,93.6z"/>
<path class="st2" d="M581.8,261.6c-1.1,3.3-5.1,5.5-8.1,3.8c-54.4-29.3-105.1-34.8-115.5-38.2c-3.3-1.1-5.3-4.6-4.2-7.9
	c1.1-3.4,4.6-5.2,8-4.1c0,0,86.7,17.4,115.9,38.3C580.7,255.6,583,258.3,581.8,261.6z"/>
<path class="st1" d="M509.3,192.8c1.2-3.3,5.1-5.4,8.1-3.8c54.1,29.8,104.9,35.6,115.2,39.1c3.3,1.1,5.2,4.6,4.2,7.9
	c-1.1,3.3-4.7,5.1-8,4c0,0-86.6-18.1-115.6-39.3C510.4,198.8,508.2,196.1,509.3,192.8z"/>
<path class="st1" d="M243.1,483.5c1.1-3.3,4.9-5.6,8-4c55,28.1,105.9,32.5,116.3,35.7c3.3,1,5.4,4.5,4.4,7.8c-1,3.4-4.5,5.3-7.9,4.3
	c0,0-87.1-15.5-116.7-35.8C244.3,489.4,242,486.8,243.1,483.5z"/>
</svg>
