<?xml version="1.0" encoding="utf-8"?>
<!-- Generator: Adobe Illustrator 23.0.1, SVG Export Plug-In . SVG Version: 6.00 Build 0)  -->
<svg version="1.1" id="Layer_1" xmlns="http://www.w3.org/2000/svg" xmlns:xlink="http://www.w3.org/1999/xlink" x="0px" y="0px"
	 viewBox="0 0 800 600" style="enable-background:new 0 0 800 600;" xml:space="preserve">
<style type="text/css">
	.st0{fill:#DB8867;}
	.st1{fill:#EAC77A;}
	.st2{fill:#BC5835;}
	.st3{fill:#FFD3B6;}
	.st4{fill:#CEB6B6;}
	.st5{fill:#CE8A46;}
	.st6{fill:#EF7A22;}
	.st7{fill:#DDCFC3;}
</style>
<path class="st0" d="M691.9,248.7c-5.6-30.6-16-59.6-30.3-86c-139.1,0-100.3-42.5-251.6-32.8c-100.7,0-182.2-26-182.2-58.1
	c-23.3,18.2-43.8,39.8-60.6,64.1c157.6,0,63.4,63.5,251.2,70.3C558.5,206.2,578.4,260.4,691.9,248.7z"/>
<path class="st1" d="M272.4,212c47.6,0,80.5,51.3,180,51.3c63.3,0,109,38,243.8,38c0-17.9-1.6-35.4-4.7-52.4
	c-113.5,11.6-133.4-42.5-273.6-42.5c-187.8-6.8-93.6-70.3-251.2-70.3c-7.1,10.2-13.5,20.9-19.3,32.1
	C147.3,192.3,171.4,212,272.4,212z"/>
<g>
	<path class="st0" d="M456.8,68.6c87.9,4.5,81.7,59.7,182.7,59.7c-53-71.1-137.7-117.1-233.1-117.1c-38.8,0-75.8,7.6-109.6,21.4
		C296.7,52.5,409.2,68.6,456.8,68.6z"/>
	<path class="st1" d="M639.5,128.2c-101,0-94.8-55.1-182.7-59.7c-47.6,0-160.1-16.1-160.1-36C271.9,42.6,248.8,56,228,72.3
		c0,32.1,81.5,58.1,182.2,58.1c151.4-9.8,112.5,32.8,251.6,32.8C655.2,150.9,647.7,139.2,639.5,128.2z"/>
</g>
<path class="st2" d="M452.4,262.6c-99.5,0-132.4-51.3-180-51.3c-101,0-125.1-19.7-125.1-44c-11.7,22.6-20.4,46.8-25.9,72.4
	c0,51.1,117.8,92.4,263.4,92.4c194.1,12,134.4,47,300.5,47c7-25,10.8-51.4,10.8-78.7C561.4,300.6,515.7,262.6,452.4,262.6z"/>
<path class="st0" d="M275.3,476.4c-69.8-49.1-52.5-80.6-139.5-67.6c43.1,106.5,147.5,181.6,269.4,181.6c79.7,0,151.9-32.1,204.4-84
	C545.1,509.6,330.7,518.3,275.3,476.4z"/>
<g>
	<path class="st0" d="M384.5,331.6c-145.6,0-263.4-41.3-263.4-92.4c-4.2,19.6-6.4,40-6.4,60.8c0,21.4,2.3,42.3,6.7,62.5
		c0,11.7,175.3-27.6,264.1,21.2c70.5,31.4,78.8,90,259.8,80c17.5-25.7,31.1-54.3,39.7-85C518.9,378.6,578.6,343.6,384.5,331.6z"/>
	<path class="st1" d="M385.5,383.6c-88.8-48.8-264.1-9.5-264.1-21.2c3.5,16,8.3,31.5,14.4,46.5c87-12.9,69.7,18.4,139.5,67.5
		c55.5,41.9,269.8,33.3,334.3,30c13.2-13.1,25.2-27.4,35.7-42.8C464.3,473.6,456,415,385.5,383.6z"/>
</g>
<path class="st2" d="M272.2,447.1c56.2,21.6,90,46.8,126.7,17.6c46.8-44.4-77.9-57.9-142-81.1C179.8,367.5,193.2,413.5,272.2,447.1z
	"/>
<path class="st2" d="M427.8,487.2c16.8,9.5,27.1,11,38-1.5c13.8-19-6.6-20.8-17.7-22.9C425.1,455.7,404.2,472.5,427.8,487.2z"/>
<path class="st2" d="M262.8,93.6c0.7-3.4,4.3-6.1,7.5-4.9c57.9,21.5,108.9,19.9,119.7,21.9c3.4,0.6,5.9,3.8,5.3,7.2
	c-0.6,3.5-3.9,5.8-7.3,5.1c0,0-88.3-5.3-120.1-22C264.7,99.3,262.1,97,262.8,93.6z"/>
<path class="st2" d="M581.8,261.6c-1.1,3.3-5.1,5.5-8.1,3.8c-54.4-29.3-105.1-34.8-115.5-38.2c-3.3-1.1-5.3-4.6-4.2-7.9
	c1.1-3.4,4.6-5.2,8-4.1c0,0,86.7,17.4,115.9,38.3C580.7,255.6,583,258.3,581.8,261.6z"/>
<path class="st1" d="M509.3,192.8c1.2-3.3,5.1-5.4,8.1-3.8c54.1,29.8,104.9,35.6,115.2,39.1c3.3,1.1,5.2,4.6,4.2,7.9
	c-1.1,3.3-4.7,5.1-8,4c0,0-86.6-18.1-115.6-39.3C510.4,198.8,508.2,196.1,509.3,192.8z"/>
<path class="st1" d="M243.1,483.5c1.1-3.3,4.9-5.6,8-4c55,28.1,105.9,32.5,116.3,35.7c3.3,1,5.4,4.5,4.4,7.8c-1,3.4-4.5,5.3-7.9,4.3
	c0,0-87.1-15.5-116.7-35.8C244.3,489.4,242,486.8,243.1,483.5z"/>
<g>
	<path class="st3" d="M407,569c31.2,0,61.2-5.4,89-15.2c3-1.1,6-2.3,9-3.4c8.3-3.3,16.3-6.9,24.2-11.1c2.1-1.1,4.3-2.3,6.3-3.4
		c8.5-4.7,16.7-9.8,24.5-15.4c5.6-4,11.3-8.2,16.5-12.7c13.8-11.3,26.4-24.2,37.7-38c5-6.2,9.6-12.5,14.2-19
		c1.3-1.8,2.4-3.5,3.5-5.3c3.5-5.5,6.9-11.3,10.1-17.1c20.8-38.4,32.6-82.3,32.6-129c0-148.9-119.7-269-267.8-269l0,0"/>
	<path class="st4" d="M406.7,534.9c27.1,0,53.3-4.7,77.4-13.2c2.6-1,5.2-2,7.8-3c7.2-2.8,14.2-6,21-9.6c1.9-1,3.7-2,5.4-3
		c7.4-4,14.5-8.5,21.4-13.4c4.9-3.5,9.8-7.1,14.4-11.1c12-9.8,23-21,32.8-33.1c4.4-5.4,8.4-10.8,12.3-16.5c1.1-1.5,2.1-3.1,3.1-4.6
		c3.1-4.8,6-9.8,8.8-14.9c18.1-33.4,28.3-71.6,28.3-112.2c0-129.5-104.1-234-232.9-234l0,0"/>
	<path class="st5" d="M406.6,19.7l0,11.1c147.7,0.2,267,120.1,267,268.6c0,46.6-11.8,90.4-32.5,128.8c-3.3,5.8-6.6,11.6-10.1,17.1
		c-1.1,1.8-2.3,3.5-3.5,5.3c-4.5,6.5-9.1,12.8-14.1,19c-11.3,13.8-23.9,26.6-37.6,37.9c-5.3,4.5-10.9,8.7-16.5,12.7
		c-7.9,5.5-16,10.7-24.5,15.3c-2,1.1-4.1,2.3-6.3,3.4c-7.9,4.1-15.9,7.8-24.1,11.1c-3,1.1-6,2.3-9,3.4
		c-27.7,9.8-57.6,15.2-88.6,15.2l0,13.1c32.5,0,63.9-5.6,92.9-15.9c3.1-1.2,6.3-2.4,9.4-3.5c8.6-3.4,17-7.2,25.2-11.6
		c2.2-1.2,4.4-2.4,6.5-3.5c8.9-4.9,17.4-10.2,25.6-16c5.9-4.2,11.8-8.5,17.3-13.3c14.4-11.8,27.6-25.2,39.3-39.7
		c5.2-6.4,10.1-13,14.8-19.8c1.3-1.8,2.5-3.7,3.7-5.5c3.7-5.8,7.2-11.8,10.6-17.9c21.7-40,34-85.9,34-134.6
		C686,145.1,561.1,19.7,406.6,19.7z"/>
	<path class="st6" d="M406.7,514.7c24.9,0,48.9-4.3,71.1-12.2c2.4-0.9,4.8-1.8,7.2-2.7c6.6-2.6,13-5.5,19.3-8.8
		c1.7-0.9,3.4-1.8,5-2.7c6.8-3.7,13.3-7.8,19.6-12.3c4.5-3.2,9-6.5,13.2-10.1c11-9,21.1-19.3,30.1-30.3c4-4.9,7.7-9.9,11.3-15.2
		c1-1.4,1.9-2.8,2.8-4.2c2.8-4.4,5.5-9,8.1-13.7c16.6-30.6,26-65.7,26-103c0-118.9-95.6-214.8-213.8-214.8l0,0"/>
	<path class="st7" d="M406.6,382.9V219.7c44.8,0,81.1,36.5,81.1,81.6S451.4,382.9,406.6,382.9z"/>
</g>
</svg>
