<?xml version="1.0" encoding="utf-8"?>
<!-- Generator: Adobe Illustrator 23.0.1, SVG Export Plug-In . SVG Version: 6.00 Build 0)  -->
<svg version="1.1" id="Layer_1" xmlns="http://www.w3.org/2000/svg" xmlns:xlink="http://www.w3.org/1999/xlink" x="0px" y="0px"
	 viewBox="0 0 550 550" style="enable-background:new 0 0 550 550;" xml:space="preserve">
<style type="text/css">
	.st0{fill:#FF6A5A;}
	.st1{fill:#CE8A46;}
	.st2{fill:#8C4444;}
	.st3{fill:#A55858;}
	.st4{fill:#DDCFC3;}
	.st5{fill:#FF8D61;}
	.st6{fill:#B85B61;}
	.st7{fill:#EAB3B0;}
	.st8{display:none;fill:#B54E58;}
	.st9{display:none;fill:#E58C8C;}
</style>
<g>
	<path class="st0" d="M532.9,277.8c0,28.9-4.8,56.6-13.7,82.6c-8.8,25.6-21.5,49.4-37.4,70.7C435,493.4,361.1,533.8,277.3,533.7
		L277.6,22c70,0.1,133.1,28.1,179.2,73.6c5.8,5.7,11.3,11.7,16.5,17.9C510.5,157.9,532.9,215.2,532.9,277.8z"/>
</g>
<g>
	<path class="st1" d="M278.1,524.4c28.4,0,55.9-4.9,81.2-13.9c2.7-1,5.5-2.1,8.2-3.1c7.5-3,14.9-6.3,22.1-10.1
		c1.9-1,3.9-2.1,5.7-3.1c7.8-4.2,15.2-9,22.4-14c5.1-3.7,10.3-7.5,15.1-11.6c12.6-10.3,24.1-22,34.4-34.7
		c4.6-5.6,8.8-11.4,12.9-17.3c1.1-1.6,2.2-3.2,3.2-4.8c3.2-5.1,6.3-10.3,9.3-15.6c19-35,29.7-75.1,29.7-117.7
		c0-135.8-109.2-245.4-244.3-245.4l0,0"/>
	<path class="st2" d="M278,421.6c16.5,0,32.5-2.9,47.2-8.1c1.6-0.6,3.2-1.2,4.8-1.8c4.4-1.7,8.6-3.7,12.8-5.9
		c1.1-0.6,2.3-1.2,3.3-1.8c4.5-2.5,8.8-5.2,13-8.1c3-2.1,6-4.3,8.8-6.7c7.3-6,14-12.8,20-20.2c2.7-3.3,5.1-6.6,7.5-10.1
		c0.7-0.9,1.3-1.9,1.9-2.8c1.9-2.9,3.7-6,5.4-9.1c11-20.4,17.3-43.7,17.3-68.4c0-79-63.5-142.7-142.1-142.7l0,0"/>
	<path class="st3" d="M278,373.3c11,0,21.7-1.9,31.5-5.4c1.1-0.4,2.1-0.8,3.2-1.2c2.9-1.2,5.8-2.5,8.6-3.9c0.8-0.4,1.5-0.8,2.2-1.2
		c3-1.6,5.9-3.5,8.7-5.4c2-1.4,4-2.9,5.9-4.5c4.9-4,9.4-8.6,13.4-13.5c1.8-2.2,3.4-4.4,5-6.7c0.4-0.6,0.8-1.2,1.2-1.9
		c1.2-2,2.4-4,3.6-6.1c7.4-13.6,11.5-29.2,11.5-45.7c0-52.7-42.4-95.3-94.9-95.3l0,0"/>
	<path class="st4" d="M351.2,278.7c0,45.6-36.7,82.6-82.1,82.6s-1.4-37-1.4-82.6s-43.9-82.6,1.4-82.6S351.2,233.1,351.2,278.7z"/>
</g>
<g>
	<path class="st5" d="M279.4,212.9l-0.1,320.8c-98.8,0-184-55.8-226.6-137.6c-4-7.7-7.6-15.6-10.8-23.7c-3.1-7.7-5.7-15.5-8-23.5
		c-2.2-7.8-4.1-15.7-5.6-23.7C25.5,310,24,294.3,24,278.3c0-65.8,24.8-125.8,65.6-171.2l0,0c7.4-8.2,15.3-16,23.7-23.2
		c3.9-3.4,8-6.7,12.1-9.8c20.7-15.7,43.9-28.4,68.8-37.2c0,0,0,0,0.1,0c26.8-9.5,55.3-14.8,85.2-14.8l-0.1,166.2V212.9z"/>
</g>
<g>
	<path class="st6" d="M221.9,337.8c0,6.6-4.7,11.8-10.6,11.8l-37.4-0.5c-6,0-11,5.2-11,11.8c0,6.7,4.8,11.6,10.8,11.6
		s10.8,4.9,10.8,11.6c0,6.6-4.4,12.3-10.4,12.3l-121.4-0.5c-4-7.7-7.6-15.6-10.8-23.7l35.1-0.1c6,0,11-4.4,11-11
		c0-6.7-6.3-12.2-12.2-12.2l-41.9-0.3c-2.2-7.8-4.1-15.7-5.6-23.7l66.4,0.2l116.2,0.8C216.8,326,221.9,331.2,221.9,337.8z"/>
</g>
<g>
	<path class="st7" d="M273.6,96c0,6.7-4.8,11.8-10.8,11.8l-74.7-0.3l-98.4-0.6l0,0c7.4-8.2,15.3-16,23.7-23.2
		c3.9-3.4,8-6.7,12.1-9.8c20.7-15.7,43.9-28.4,68.8-37.2l46.7,0.2c6,0,11,5.1,11,11.8c0,6.7-4.2,11.8-10.2,11.8l-36.1,0.1
		c-6,0-11,4.3-11,11s6.3,12.2,12.2,12.2l56.2,0.4C269.2,84.2,273.6,89.4,273.6,96z"/>
</g>
<path class="st6" d="M279.3,476.6l-36.1,0.1c-6,0-11-5.1-11-11.8c0-6.6,4.2-11.8,10.1-11.8l37-0.6V476.6L279.3,476.6z"/>
<path class="st6" d="M279.5,188.2l-0.1,24.7l-96.1-0.7c-6,0-11-5.1-11-11.8c0-6.6,4.2-11.8,10.2-11.8l36.1-0.1L279.5,188.2z"/>
<path class="st8" d="M279.4,212.9l0.1-24.7L375,189c6,0,11,5.1,11,11.8c0,6.6-4.2,11.8-10.1,11.8l-36,0.1L279.4,212.9z"/>
<path class="st6" d="M279.7,289.6l-35.5-0.4c-6,0-11-5.1-11-11.8c0-6.6,4.2-11.8,10.1-11.8l36.4,0.1V289.6z"/>
<path class="st8" d="M279.4,265.7l86.7,0.4c14.6,0,18.9,4.9,18.9,11.6c0,6.6-3.9,11.5-18.4,11.5l-87.4,0.5L279.4,265.7z"/>
<circle class="st6" cx="262.6" cy="123" r="13.2"/>
<path class="st8" d="M279.3,452.5l143.1-0.1c6,0,11,5.1,11,11.8c0,6.6-4.2,11.8-10.1,11.8l-143.9,0.6L279.3,452.5L279.3,452.5z"/>
<path class="st8" d="M474.8,113.5c-2.1,4.6-6.7,7.8-12,7.8c-7.3,0-13.2-5.9-13.2-13.2c0-5.7,3.6-10.6,8.7-12.4
	C464.1,101.3,469.6,107.3,474.8,113.5z"/>
<ellipse transform="matrix(0.1602 -0.9871 0.9871 0.1602 241.8203 468.0122)" class="st9" cx="396" cy="91.9" rx="13.2" ry="13.2"/>
<path class="st9" d="M518.7,360.3c-8.8,25.6-21.5,49.4-37.4,70.7l-51.6-0.2c-6,0-11-5.1-11-11.8c0-6.7,4.2-11.8,10.2-11.8l36.1-0.1
	c6,0,11-4.4,11-11c0-6.7-6.3-12.2-12.2-12.2l-56.2-0.4c-6,0-10.4-5.2-10.4-11.8c0-6.6,4.8-11.8,10.8-11.8l74.7,0.3L518.7,360.3z"/>
<path class="st6" d="M164.3,444.8h21.5c5.9,0,10.1-5.1,10.1-11.8c0-6.7-5-11.8-11-11.8l-20.5-0.4h-33.3c-5.4,0-9.3,5.1-9.3,11.8
	c0,6.7,4.6,11.8,10.1,11.8L164.3,444.8z"/>
<path class="st6" d="M145.9,133.2h21.5c5.9,0,10.1-5.1,10.1-11.8s-5-11.8-11-11.8l-20.5-0.4h-33.3c-5.4,0-9.3,5.1-9.3,11.8
	s4.6,11.8,10.1,11.8L145.9,133.2z"/>
<path class="st8" d="M458.6,362h21.5c5.9,0,10.1-5.1,10.1-11.8c0-6.7-5-11.8-11-11.8l-20.5-0.4h-33.3c-5.4,0-9.3,5.1-9.3,11.8
	c0,6.7,4.6,11.8,10,11.8L458.6,362z"/>
<path class="st8" d="M325.2,344.8h21.5c5.9,0,10.1-5.1,10.1-11.8c0-6.7-5-11.8-11-11.8l-20.5-0.4H292c-5.4,0-9.3,5.1-9.3,11.8
	c0,6.7,4.6,11.8,10,11.8L325.2,344.8z"/>
<path class="st6" d="M166,294l-88.6-0.6c-4.5,0-8.4-3.9-8.4-9s3.6-9,8.1-9l28.5,0.4c4.6,0,8.4-4,8.4-9s-3.7-8.9-8.3-8.9
	s-8.3-3.7-8.3-8.9c0-5.1,3.4-9.4,7.9-9.4l101,0.4c4.6,0,8.4,3.9,8.4,9s-3.2,9-7.8,9h-27.5c-4.6,0-8.4,3.3-8.4,8.4s4.8,9.3,9.3,9.3
	l42.9,0.3c4.6,0,7.9,4,7.9,9s-3.7,9-8.3,9L166,294L166,294z"/>
</svg>
