<?xml version="1.0" encoding="utf-8"?>
<!-- Generator: Adobe Illustrator 23.0.1, SVG Export Plug-In . SVG Version: 6.00 Build 0)  -->
<svg version="1.1" id="Layer_1" xmlns="http://www.w3.org/2000/svg" xmlns:xlink="http://www.w3.org/1999/xlink" x="0px" y="0px"
	 viewBox="0 0 800 600" style="enable-background:new 0 0 800 600;" xml:space="preserve">
<style type="text/css">
	.st0{fill:#9E9C98;}
	.st1{fill:#B2B2B2;}
	.st2{fill:#D6D6D6;}
	.st3{fill:#A5A5A5;}
</style>
<path class="st0" d="M416,76.8v100.6V189v4.6v1.8c13.9-2.1,29.1-1.4,37-0.4c2.4,0.3,2.8,0.8,3.5,2.7c0.6,1.8-2.9,4.8-5.3,4.4
	c-10.4-1.6-23.6-2-35.1-0.1v1.6v301.2c24.9,0,48.9-4.3,71.1-12.1c2.4-0.9,4.8-1.8,7.2-2.7c6.6-2.6,13-5.5,19.3-8.8
	c1.7-0.9,3.4-1.8,5-2.7c6.8-3.7,13.3-7.8,19.6-12.2c4.5-3.2,9-6.5,13.2-10.1c11-9,21.1-19.2,30.1-30.2c4-4.9,7.7-9.9,11.3-15.1
	c1-1.4,1.9-2.8,2.8-4.2c2.8-4.4,5.5-9,8.1-13.6c16.6-30.5,26-65.4,26-102.5C629.8,172.3,534.2,76.8,416,76.8z"/>
<path class="st1" d="M324,98.1c-3,1.5-6,3-9,4.6c-1.3,0.7-2.7,1.5-4,2.3c-2.6,1.5-5.1,3-7.6,4.6c-22.7,14.4-42.5,32.9-58.4,54.5
	c-3.4,4.6-6.5,9.3-9.5,14.1c-1.3,2.1-2.5,4.2-3.8,6.3c-1,1.7-1.9,3.4-2.8,5.1c-0.8,1.5-1.6,3.1-2.4,4.6c-2.1,4.1-4,8.2-5.8,12.4
	c-0.2,0.5-0.5,1.1-0.7,1.7c-3.1,7.5-5.9,15.3-8.1,23.2c-5.4,18.9-8.3,38.8-8.3,59.4c0,118.2,95.6,213.8,213.8,213.8v-428
	C383.8,76.7,352.2,84.4,324,98.1z"/>
<path class="st2" d="M283.3,293.8c-6.7,6.2-14.8,6.6-27.1-6.6c-12.3-13.2-16.9-28.9-10.3-35.1s22-0.6,34.4,12.6
	C292.6,277.8,289.9,287.5,283.3,293.8z"/>
<path class="st2" d="M384,327c0,11.6-4.1,21-17.9,21c-13.9,0-25.1-9.4-25.1-21s11.2-21,25.1-21C379.9,306,384,315.4,384,327z"/>
<path class="st2" d="M327,418.5c0,8.6-6.9,15.5-15.5,15.5s-15.5-6.9-15.5-15.5s7.4-8.5,16-8.5S327,409.9,327,418.5z"/>
<circle class="st3" cx="499" cy="422" r="12"/>
<circle class="st3" cx="490.5" cy="205.5" r="26.5"/>
<circle class="st2" cx="494" cy="202" r="16"/>
<path class="st3" d="M592.2,333.5c-2.1,1.2-6.5-2.4-6.7-5.4c-0.8-17.7-5.5-41.1-14.7-56.1c-16.9-27.3-42.7-35.4-46.4-41.3
	c-1.7-2.8-1.7-5.9,0.3-7.2c2.1-1.3,3.2-1.9,7.4-0.3c0,0,28.4,17.9,44.8,43.4c11.7,18.1,16.6,48.4,17.6,62
	C594.9,331.6,594.3,332.2,592.2,333.5z"/>
<path class="st3" d="M611.3,248.7c-1,1.5-5.2,0.5-6.3-1.4c-6.4-11.6-17.4-25.9-28.5-32.9c-20.5-12.8-40.6-9.6-45-12.4
	c-2.1-1.3-3.1-3.4-2.2-5c0.9-1.6,1.5-2.4,4.9-2.7c0,0,25.1,2.6,44.7,14.3c13.9,8.3,27.3,27.1,32.5,35.9
	C612.5,246.5,612.3,247.1,611.3,248.7z"/>
<path class="st3" d="M575.3,152.4c0.7,1.5-1.5,3.9-3.1,3.5c-9.9-1.9-23.1-2.1-31.5,1.8c-15.5,7.1-20.4,22.6-23.7,24.1
	c-1.6,0.7-3.3,0.3-4-1.2s-1-2.3-0.1-4.8c0,0,10.4-15.8,24.9-22.8c10.3-5,27.3-4,34.9-2.8C574.3,150.5,574.6,150.9,575.3,152.4z"/>
<path class="st3" d="M493.1,369.5c-2.4-0.2-3.9-5.7-2.3-8.3c9.5-14.9,19.2-36.8,20.3-54.3c1.9-32.1-14.6-53.5-14.2-60.4
	c0.2-3.3,2-5.8,4.4-5.7s3.7,0.3,6.2,4c0,0,12.9,31,11.7,61.3c-0.9,21.5-14.3,49.2-21.3,60.8C496.3,369.6,495.6,369.7,493.1,369.5z"
	/>
<path class="st3" d="M511.8,105.4c1.3,0.3,1.6,3.4,0.5,4.7c-6.5,7.1-13.7,17.9-15.9,27.2c-4,17,2.9,30,2,33.7
	c-0.4,1.7-1.6,2.9-2.9,2.7c-1.3-0.3-2-0.5-3-2.7c0,0-4-17.8-0.6-33.9c2.5-11.5,12.2-25,17-30.6C510,105.1,510.5,105,511.8,105.4z"/>
<path class="st3" d="M477,174.3c-0.8,1-3.8,0.1-4.5-1.4c-4-8.8-11.1-19.7-18.7-25.4c-14-10.4-28.7-9.2-31.8-11.5
	c-1.4-1.1-2.1-2.6-1.3-3.7c0.8-1.1,1.2-1.6,3.7-1.6c0,0,18,3.3,31.4,12.9c9.6,6.8,18.2,21.1,21.4,27.7
	C478,172.8,477.8,173.2,477,174.3z"/>
<path class="st3" d="M477,230.7c2.2,1,1.7,6.8-0.7,8.6c-14.1,10.6-31,27.6-38.1,43.6c-13.1,29.3-5.2,55.2-8,61.6
	c-1.4,3-3.9,4.7-6.1,3.8c-2.3-1-3.4-1.6-4.4-5.9c0,0-1.1-33.6,10.7-61.5c8.4-19.8,30.7-41,41.3-49.4
	C474,229.5,474.8,229.6,477,230.7z"/>
<path class="st2" d="M358,150.8c0,11-8.1,14.2-18,14.2s-18-3.2-18-14.2s8.1-19.8,18-19.8S358,139.9,358,150.8z"/>
<path class="st3" d="M450.9,203.2c2.4,0.4,6.5-3.1,6.7-5.2c-1.2-2.2-1.7-3.5-4.2-3.8c-7.9-1-22.1-1.3-36,0.8l-1.4,7.4
	C427.7,200.3,440.5,201.7,450.9,203.2z"/>
<path class="st2" d="M402.6,199.2c-22.7,9-41.3,28.6-41.3,28.6c-1.9,3-1.7,4-0.9,5.9c0.7,1.8,3.1,2.3,5.6,1.4
	c5.2-1.9,15.7-21.1,39.9-30.1c3.5-1.3,7.4-2.2,11.5-2.9V195C412.1,195.7,407,197.4,402.6,199.2z"/>
</svg>
