<?xml version="1.0" encoding="utf-8"?>
<!-- Generator: Adobe Illustrator 23.0.1, SVG Export Plug-In . SVG Version: 6.00 Build 0)  -->
<svg version="1.1" id="Layer_1" xmlns="http://www.w3.org/2000/svg" xmlns:xlink="http://www.w3.org/1999/xlink" x="0px" y="0px"
	 viewBox="0 0 800 600" style="enable-background:new 0 0 800 600;" xml:space="preserve">
<style type="text/css">
	.st0{fill:#0B25B7;}
	.st1{fill:#4164C4;}
	.st2{fill:#1D46CC;}
	.st3{fill:#677BCE;}
	.st4{fill:#239EE2;}
	.st5{fill:#0EC672;}
	.st6{fill:#DDCFC3;}
</style>
<path class="st0" d="M615.3,394c-0.6,1.3-1.2,2.7-1.8,4c-0.7,1.5-1.4,3-2.1,4.4c-3.5,7.4-7.5,14.6-11.8,21.5
	c-6.5,10.6-13.9,20.7-22.1,30.1c-0.6-3.2-2.3-6.1-4.8-8.7c-0.1-0.1-0.3-0.3-0.4-0.4c-18-17.9-78.6-21.8-147.6-8.1
	c-117.8,31.5-93.8-8.1-203.5,13.7c-0.1-0.1-0.2-0.2-0.2-0.3c-15.4-18.5-28-39.6-37.2-62.7c0.1,0,0.2-0.1,0.4-0.1
	c7.4-2.3,14.3-4.1,20.9-5.5c1.2-0.3,2.4-0.5,3.6-0.7c0.6-0.1,1.2-0.2,1.8-0.3c0.1,0,0.3,0,0.4-0.1c0.8-0.1,1.6-0.3,2.3-0.4
	c62.2-10.6,92.8,14.4,179.3,0.2c2.1-0.4,4.2-0.7,6.4-1.1c2.4-0.4,4.8-0.9,7.3-1.4c0.1,0,0.2,0,0.3-0.1c0.6-0.1,1.3-0.2,1.9-0.3
	c0.7-0.1,1.5-0.2,2.2-0.3c41.8-6.4,66.1-5.6,82.7-1.9c22.2,5,30.5,15.4,47.9,20.8c11.2,3.4,26,4.9,50.7,1.6c1.4-0.2,2.8-0.4,4.3-0.6
	h0.1c1.8-0.3,3.7-0.6,5.6-0.9c0.5-0.1,1-0.2,1.5-0.3c1-0.2,2-0.3,3-0.5C609.3,395.1,612.3,394.6,615.3,394z"/>
<path class="st1" d="M625.8,365.6c-0.7,2.3-1.3,4.5-2.1,6.8l0,0c-1.2,3.6-2.4,7.2-3.8,10.8c-1.3,3.6-2.8,7.2-4.3,10.7
	c-0.1,0-0.3,0.1-0.4,0.1c-3,0.6-5.9,1.2-8.8,1.7c-3.6,0.6-7,1.2-10.2,1.7c-1.5,0.2-2.9,0.4-4.4,0.6c-24.6,3.2-39.4,1.7-50.5-1.8
	c-17.4-5.5-25.8-15.9-48.3-20.8l0,0c-16.6-3.7-41-4.3-82.4,2.1c-0.7,0.1-1.5,0.2-2.2,0.3c-0.6,0.1-1.3,0.2-1.9,0.3
	c-0.1,0-0.2,0-0.3,0.1c-2.5,0.5-4.9,1-7.3,1.4c-1.1,0.2-2.1,0.4-3.2,0.6c-1.8,0.3-3.5,0.6-5.2,0.9c-84.8,13.4-115.4-11.2-177.3-0.5
	c-0.8,0.1-1.6,0.3-2.3,0.4c-0.1,0-0.3,0.1-0.4,0.1c-0.6,0.1-1.2,0.2-1.8,0.3c-1.2,0.2-2.4,0.5-3.6,0.7c-6.6,1.4-13.5,3.2-20.9,5.5
	l0,0c-5.1-12.8-9-26.2-11.9-40.1c0-0.2-0.1-0.3-0.1-0.5c95.5-19.1,141.1,6.7,185.6,4.9c0.1,0,0.2,0,0.3,0c2.4-0.1,4.7-0.3,7.1-0.6
	c0,0,0.1,0,0.2,0c1.6-0.2,3.3-0.4,4.9-0.7c0.8-0.1,1.7-0.3,2.5-0.5c2-0.4,3.9-0.8,5.8-1.1c46.2-8.3,75.5-2.8,99.9,0.8
	c14.8,2.2,27.8,3.7,41.6,0.9c7.5-1.5,14.6-2.8,21.1-3.8c32.8-5.1,53.5-4.5,66.2-0.2l0,0c1.8,0.6,3.4,1.3,4.9,2
	c7.8,3.9,11.5,9.6,13,16.2c0,0.1,0.1,0.3,0.1,0.4c0,0,0,0,0,0.1C625.8,365.4,625.8,365.5,625.8,365.6z"/>
<g>
	<path class="st0" d="M529.4,495.8c-24.5,16.2-52.5,28-83,34.1C384.8,542.1,324,529,275,497.7c-7-4.4-13.7-9.2-20.1-14.4
		c-3.6-2.9-7.2-5.9-10.6-9l-0.1-0.1c8.3-1.6,15.8-2.6,22.5-3.1c21-1.5,35.7,2,48.7,6.7c23.5,8.4,41.8,20.6,82.1,14.7
		c36.8-7.3,125-12.3,131.5,2.3c0,0.1,0.1,0.2,0.1,0.3C529.3,495.3,529.3,495.6,529.4,495.8z"/>
	<path class="st2" d="M577.3,453.7c-13.9,16-30,30.3-47.9,42.2c0-0.2-0.1-0.3-0.1-0.4s-0.1-0.2-0.1-0.3c-0.1-0.2-0.2-0.4-0.3-0.6
		c-8-14-94.9-9.1-131.3-1.9c-40.3,5.9-58.6-6.3-82.1-14.7c-13.1-4.7-27.8-8.2-48.7-6.7c-6.8,0.5-14.3,1.5-22.5,3.1c0,0,0,0-0.1,0
		c-1.9-1.7-3.7-3.4-5.5-5.2l0,0c-4.7-4.5-9.2-9.2-13.5-14.1l0,0c-1.4-1.6-2.7-3.2-4.1-4.8l0,0c109.6-21.8,85.7,17.8,203.4-13.7
		c69.3-13.8,130.1-9.7,147.8,8.4c0.2,0.2,0.3,0.3,0.5,0.5C575.2,447.9,576.7,450.7,577.3,453.7z"/>
</g>
<path class="st2" d="M630.7,346.2L630.7,346.2c0,0.2,0,0.3-0.1,0.4c-1.2,6.1-2.7,12.2-4.3,18.2c-0.1,0.4-0.2,0.8-0.4,1.3
	c0-0.2-0.1-0.3-0.1-0.5c0-0.1,0-0.2,0-0.3c0,0,0,0,0-0.1s-0.1-0.3-0.1-0.4c-1.6-6.6-23.7-0.9-32.6-0.9c-15,0-28.1-14.9-78-5
	c-13.8,2.8-26,0.1-39.9-3.5c-22.9-6-50.3-14.7-96.3-6.6c-1.9,0.3-3.8,0.7-5.8,1.1c-0.8,0.2-1.7,0.3-2.5,0.5
	c-1.6,0.3-3.3,0.5-4.9,0.7c-0.1,0-0.1,0-0.2,0c-2.4,0.3-4.7,0.5-7.1,0.6c-0.1,0-0.2,0-0.3,0c-44.5,1.9-90-23.4-185.5-4.4l0,0
	c-4.3-21.5-5.5-42.9-3.9-63.7c39.2-7.8,62.9-10,81.1-9.7c1.2,0,2.3,0,3.5,0.1c21.8,0.7,35.9,4.7,61.5,6c0.8,0,1.7,0.1,2.6,0.1
	c1.1,0,2.1,0.1,3.2,0.1c11,0.3,24.1,0.1,40.5-1.1c14.4-1,31.5-2.8,51.9-5.6c34.1-6.8,66.9-10.3,96.3-10.9c3.5-0.1,7-0.1,10.3-0.1
	s6.6,0.1,9.8,0.2c0.3,0,0.7,0,1,0l0,0c1.5,0.1,2.9,0.1,4.3,0.2c54.6,2.4,93.2,16.5,99.9,40c0.2,0.7,0.4,1.4,0.5,2.1
	C634.7,319,633.3,332.8,630.7,346.2z"/>
<path class="st0" d="M596.1,174c-66.5,23.9-73.4,22.7-136.1-5c-50.3-24.3-202.3-10.1-252.6,2.6c0.1-0.2,0.3-0.4,0.4-0.6
	c33.2-48.9,84.9-85.3,147.4-97.8c39.7-7.9,79-5.3,115.1,6c32.4,10.1,62.1,27.2,87.2,49.8c14.5,13.1,27.4,28,38.3,44.6
	C595.9,173.8,596,173.9,596.1,174z"/>
<g>
	<path class="st0" d="M634.4,302.9L634.4,302.9c0,0.7,0,1.4,0,2.1c-4.8-24.2-42.6-39-97-41.9c-2.3-0.1-4.8-0.2-7.2-0.3l0,0
		c-1.1,0-2.3-0.1-3.4-0.1c-2-0.1-4.1-0.1-6.2-0.1c-4.5,0-9,0-13.7,0.1c-29,0.7-61.2,4.2-94.7,10.9c-20.2,2.7-37.1,4.5-51.4,5.5
		c-14.7,1.1-26.8,1.4-37.1,1.2c-3.2-0.1-6.3-0.1-9.2-0.3c-0.7,0-1.4-0.1-2-0.1c-0.1,0-0.2,0-0.3,0c-22.7-1.2-36.3-4.7-55.1-5.7
		c-0.5,0-1,0-1.5-0.1c-0.8,0-1.7-0.1-2.5-0.1c-1.1,0-2.3-0.1-3.5-0.1c-18.2-0.3-42,1.8-81.6,9.7c1.3-17.1,4.5-33.8,9.4-49.9
		c2.1-6.8,4.4-13.4,7.1-19.9l0,0c0.5-1.2,0.9-2.3,1.4-3.4c2.4-0.6,4.8-1.2,7.2-1.8c1.2-0.3,2.4-0.6,3.5-0.9c1.2-0.3,2.3-0.6,3.5-0.8
		c1.1-0.3,2.3-0.5,3.4-0.8c2.4-0.5,4.8-1.1,7.1-1.5c1.6-0.3,3.2-0.7,4.8-1c0.8-0.2,1.6-0.3,2.4-0.5c1.6-0.3,3.1-0.6,4.7-0.9
		c0.8-0.1,1.5-0.3,2.3-0.4c2.5-0.4,4.9-0.8,7.2-1.2c1.2-0.2,2.5-0.4,3.7-0.6c0.1,0,0.2,0,0.2,0c2-0.3,4-0.6,5.9-0.8
		c3-0.4,5.9-0.8,8.7-1c0.5-0.1,1.1-0.1,1.6-0.2c2.4-0.3,4.7-0.5,7-0.6c0.6-0.1,1.1-0.1,1.7-0.1c0.2,0,0.5,0,0.7,0
		c0.4,0,0.8-0.1,1.3-0.1c2.9-0.2,5.6-0.3,8.3-0.4c0.8,0,1.5,0,2.3,0c0.7,0,1.4,0,2.1,0c63.2-0.7,83.5,26.1,127.8,36.1
		c2.6,0.8,5.2,1.5,7.8,2.2c2.7,0.6,5.4,1.2,8.2,1.6c0.9,0.2,1.8,0.3,2.8,0.4c34.1,5.1,74.7-1.4,109.8-9.6
		c10.9-2.6,21.3-5.3,30.8-7.9l0,0c1.3-0.4,2.7-0.7,4-1.1c1.7-0.5,3.4-1,5.1-1.4c0.8-0.2,1.7-0.5,2.5-0.7s1.6-0.5,2.4-0.7
		c0.8-0.2,1.6-0.4,2.3-0.7l0,0c0.8-0.2,1.5-0.4,2.3-0.6l0,0c0.8-0.2,1.5-0.4,2.2-0.6c1.1-0.3,2.2-0.6,3.2-0.9
		c0.7-0.2,1.4-0.4,2.1-0.6c7.2-2,13.1-3.6,17.5-4.5c0.4-0.1,0.8-0.2,1.2-0.2c2.2-0.4,3.9-0.6,5.2-0.5c0.1,0,0.2,0,0.3,0s0.2,0,0.3,0
		s0.2,0,0.3,0s0.2,0,0.3,0.1c0.1,0,0.2,0.1,0.3,0.1c0.2,0.1,0.3,0.1,0.4,0.3l0.1,0.1l0,0c0.1,0.1,0.1,0.2,0.1,0.3
		c6.6,15.2,11.8,31.3,15.1,48.2C633,271.8,634.5,287.5,634.4,302.9z"/>
	<path class="st1" d="M596.1,173.5c7,10.7,13.3,22.1,18.5,34.1c-4.8-7.6-134.6,49.3-211.3,25.1c-44.3-10-64.6-36.8-127.8-36.1
		c-17.7,0.2-38.9,2.6-64.9,8.1c-7.8,1.6-16,3.6-24.7,5.8c2.3-5.5,4.9-10.9,7.6-16.2c3.6-6.9,7.5-13.6,11.7-20
		c0.7-1.1,1.4-2.1,2.1-3.2c0.1,0,0.2-0.1,0.4-0.1c50.7-12.7,212.1-30.2,262.2-6c62.6,27.7,59.6,32.4,125.8,8.6
		C595.9,173.6,596,173.6,596.1,173.5z"/>
</g>
<path class="st3" d="M322.3,183.2c0.1,5.6-3.8,10-8.7,10h-31.3c-2.7,0-5.1,1.3-6.8,3.4c-1.5,1.8-2.3,4.1-2.3,6.7
	c0.1,5.5,4.2,9.6,9.2,9.6c5-0.1,9.1,4,9.2,9.6c0.1,5.5-3.6,10.3-8.5,10.4l-105.5,1c2.1-6.8,4.4-13.4,7.1-19.9l0,0l17-0.3
	c4.9-0.1,9-3.6,9.1-9v-0.3c-0.1-5.6-5.4-10.1-10.3-10.1h-6.7c3.6-6.9,7.5-13.6,11.7-20l10.6-0.1l97.1-0.6
	C317.9,173.4,322.2,177.6,322.3,183.2z"/>
<path class="st3" d="M630.6,346.6c-1.2,6.1-2.7,12.2-4.3,18.2c-0.1,0.4-0.2,0.8-0.4,1.3c0-0.2-0.1-0.3-0.1-0.5
	c-0.7,2.3-1.3,4.5-2.1,6.8l0,0l-32.2,0.3c-6.5,0-11.9,4.8-11.9,12.1c0,6.9,6.2,12.6,12.3,13.2h0.1c0.3,0,0.6,0,0.9,0h20.5
	c-0.7,1.5-1.4,3-2.1,4.4c-3.5,7.4-7.5,14.6-11.8,21.5l-27.1,0.1L446,423.9c-6.5,0.1-12-5.5-12.1-12.7c0-7.3,5-12.9,11.4-13l40.8,0.3
	c6.5,0,12-5.7,11.9-13c0-4.2-1.8-7.8-4.6-10c-0.1-0.1-0.2-0.2-0.3-0.2l0,0c-2-1.5-4.3-2.3-6.9-2.3c-6.5,0-11.8-5.3-11.9-12.6
	c0-1.7,0.3-3.3,0.7-4.9c0.7-2.3,2-4.3,3.6-5.8c1.9-1.7,4.2-2.7,6.9-2.7l55.9-0.1l66.2-0.2l0,0l22.1-0.1
	C630,346.6,630.3,346.6,630.6,346.6z"/>
<path class="st3" d="M351.1,460.9c0,4.1-2.8,7.3-6.4,7.3h-22.9c-3.7,0-6.7,3.3-6.6,7.4c0,0.8,0.1,1.5,0.3,2.2v0.1
	c0.9,2.8,3.4,4.7,6.3,4.7c3.7,0,6.7,2.9,6.7,7s-2.6,7.6-6.3,7.6l-47.3,0.5c-7-4.4-13.7-9.2-20.1-14.4l7.7-0.1
	c3.7-0.1,6.7-2.8,6.7-6.8c0-2-1-3.8-2.4-5.2l-0.1-0.1c-1.4-1.3-3.3-2.1-5.1-2.1l-23,0.2l0,0c-4.7-4.5-9.2-9.2-13.5-14.1
	c0.6-0.2,1.3-0.4,2-0.4l45.8-0.4l71.2-0.5C347.9,453.7,351.1,456.8,351.1,460.9z"/>
<path class="st3" d="M262.3,284.9l97.1,0.6c5-0.1,9.2,4.2,9.2,9.8c0,5.6-3.9,9.9-8.8,9.9l-31.3-0.4c-5,0-9.2,4.3-9.2,9.9
	s4,9.7,9,9.7s9,4.1,9,9.7s-3.7,10.3-8.7,10.3L218,344c-5,0-9.2-4.3-9.2-9.9s3.5-9.8,8.5-9.8l30.2-0.1c5,0,9.2-3.6,9.2-9.2
	s-5.3-10.2-10.2-10.2l-47-0.3c-5,0-8.7-4.3-8.7-9.9s4-9.9,9-9.9L262.3,284.9L262.3,284.9z"/>
<path class="st3" d="M356.5,129.6h-17.2c-4.7,0-8.1,4.1-8.1,9.5s4,9.5,8.8,9.5l16.5,0.3h26.8c4.3,0,7.5-4.1,7.5-9.5
	s-3.7-9.5-8.1-9.5L356.5,129.6z"/>
<path class="st3" d="M536.2,231.4L433,230.9c-4.7,0-8.1,4.1-8.1,9.5s4,9.5,8.8,9.5l102.5,0.8H563c4.3,0,7.5-4.1,7.5-9.5
	s-3.7-9.5-8.1-9.5L536.2,231.4z"/>
<path class="st3" d="M472.2,106.4L369,105.9c-4.7,0-8.1,4.1-8.1,9.5s4,9.5,8.8,9.5l102.5,0.8H499c4.3,0,7.5-4.1,7.5-9.5
	s-3.7-9.5-8.1-9.5L472.2,106.4z"/>
<g>
	<path class="st4" d="M399.1,72.9v458.2c26.8,0,52.6-4.6,76.5-13c2.6-1,5.2-1.9,7.7-2.9c7.1-2.8,14-5.9,20.8-9.4
		c1.8-1,3.7-1.9,5.4-2.9c7.3-4,14.3-8.4,21.1-13.1c4.8-3.4,9.7-7,14.2-10.8c11.8-9.6,22.7-20.6,32.4-32.3
		c4.3-5.2,8.3-10.6,12.2-16.2c1.1-1.5,2-3,3-4.5c3-4.7,5.9-9.6,8.7-14.6c17.9-32.7,28-70,28-109.9
		C629.1,175.2,526.3,72.9,399.1,72.9"/>
	<path class="st5" d="M398,157.8V446c16.9,0,33.1-2.9,48.1-8.2c1.6-0.6,3.2-1.2,4.9-1.8c4.5-1.8,8.8-3.7,13.1-5.9
		c1.2-0.6,2.3-1.2,3.4-1.8c4.6-2.5,9-5.3,13.3-8.2c3-2.2,6.1-4.4,8.9-6.8c7.4-6.1,14.3-12.9,20.4-20.3c2.7-3.3,5.2-6.7,7.6-10.2
		c0.7-0.9,1.3-1.9,1.9-2.8c1.9-3,3.7-6.1,5.5-9.2c11.2-20.5,17.6-44.1,17.6-69.1C542.7,222.1,478,157.8,398,157.8"/>
	<path class="st6" d="M398,242.6v118.8c6.9,0,13.6-1.2,19.8-3.4c0.7-0.2,1.3-0.5,2-0.7c1.8-0.7,3.6-1.5,5.4-2.4
		c0.5-0.2,0.9-0.5,1.4-0.7c1.9-1,3.7-2.2,5.5-3.4c1.3-0.9,2.5-1.8,3.7-2.8c3.1-2.5,5.9-5.3,8.4-8.4c1.1-1.4,2.1-2.7,3.2-4.2
		c0.3-0.4,0.5-0.8,0.8-1.2c0.8-1.2,1.5-2.5,2.3-3.8c4.6-8.5,7.3-18.2,7.3-28.5C457.6,269.1,431,242.6,398,242.6"/>
</g>
</svg>
