<?xml version="1.0" encoding="utf-8"?>
<!-- Generator: Adobe Illustrator 23.0.1, SVG Export Plug-In . SVG Version: 6.00 Build 0)  -->
<svg version="1.1" id="Layer_1" xmlns="http://www.w3.org/2000/svg" xmlns:xlink="http://www.w3.org/1999/xlink" x="0px" y="0px"
	 viewBox="0 0 550 550" style="enable-background:new 0 0 550 550;" xml:space="preserve">
<style type="text/css">
	.st0{fill:#DDD54A;}
	.st1{fill:#FFFC8F;}
	.st2{display:none;fill:#B85B61;}
	.st3{display:none;fill:#B54E58;}
	.st4{display:none;fill:#E58C8C;}
	.st5{fill:#AAA12B;}
	.st6{fill:#7C7C7C;}
	.st7{opacity:0.3;fill:#A4C5FF;stroke:#000000;stroke-width:16;stroke-miterlimit:10;}
	.st8{opacity:0.3;fill:#A4C5FF;}
</style>
<g>
	<path class="st0" d="M532.9,277.8c0,28.9-4.8,56.6-13.7,82.6c-8.8,25.6-21.5,49.4-37.4,70.7C435,493.4,361.1,533.8,277.3,533.7
		L277.6,22c70,0.1,133.1,28.1,179.2,73.6c5.8,5.7,11.3,11.7,16.5,17.9C510.5,157.9,532.9,215.2,532.9,277.8z"/>
</g>
<path class="st1" d="M279.4,212.9l-0.1,320.8c-98.8,0-184-55.8-226.6-137.6c-4-7.7-7.6-15.6-10.8-23.7c-3.1-7.7-5.7-15.5-8-23.5
	c-2.2-7.8-4.1-15.7-5.6-23.7C25.5,310,24,294.3,24,278.3c0-65.8,24.8-125.8,65.6-171.2l0,0c7.4-8.2,15.3-16,23.7-23.2
	c3.9-3.4,8-6.7,12.1-9.8c20.7-15.7,43.9-28.4,68.8-37.2c0,0,0,0,0.1,0c26.8-9.5,55.3-14.8,85.2-14.8l-0.1,166.2V212.9z"/>
<g>
	<path class="st0" d="M221.9,337.8c0,6.6-4.7,11.8-10.6,11.8l-37.4-0.5c-6,0-11,5.2-11,11.8c0,6.7,4.8,11.6,10.8,11.6
		s10.8,4.9,10.8,11.6c0,6.6-4.4,12.3-10.4,12.3l-121.4-0.5c-4-7.7-7.6-15.6-10.8-23.7l35.1-0.1c6,0,11-4.4,11-11
		c0-6.7-6.3-12.2-12.2-12.2l-41.9-0.3c-2.2-7.8-4.1-15.7-5.6-23.7l66.4,0.2l116.2,0.8C216.8,326,221.9,331.2,221.9,337.8z"/>
</g>
<g>
	<path class="st0" d="M273.6,96c0,6.7-4.8,11.8-10.8,11.8l-74.7-0.3l-98.4-0.6l0,0c7.4-8.2,15.3-16,23.7-23.2
		c3.9-3.4,8-6.7,12.1-9.8c20.7-15.7,43.9-28.4,68.8-37.2l46.7,0.2c6,0,11,5.1,11,11.8c0,6.7-4.2,11.8-10.2,11.8l-36.1,0.1
		c-6,0-11,4.3-11,11s6.3,12.2,12.2,12.2l56.2,0.4C269.2,84.2,273.6,89.4,273.6,96z"/>
</g>
<path class="st2" d="M279.3,476.6l-36.1,0.1c-6,0-11-5.1-11-11.8c0-6.6,4.2-11.8,10.1-11.8l37-0.6V476.6L279.3,476.6z"/>
<path class="st2" d="M279.5,188.2l-0.1,24.7l-96.1-0.7c-6,0-11-5.1-11-11.8c0-6.6,4.2-11.8,10.2-11.8l36.1-0.1L279.5,188.2z"/>
<path class="st3" d="M279.4,212.9l0.1-24.7L375,189c6,0,11,5.1,11,11.8c0,6.6-4.2,11.8-10.1,11.8l-36,0.1L279.4,212.9z"/>
<path class="st2" d="M279.7,289.6l-35.5-0.4c-6,0-11-5.1-11-11.8c0-6.6,4.2-11.8,10.1-11.8l36.4,0.1V289.6z"/>
<path class="st3" d="M279.4,265.7l86.7,0.4c14.6,0,18.9,4.9,18.9,11.6c0,6.6-3.9,11.5-18.4,11.5l-87.4,0.5L279.4,265.7z"/>
<circle class="st2" cx="262.6" cy="123" r="13.2"/>
<path class="st3" d="M279.3,452.5l143.1-0.1c6,0,11,5.1,11,11.8c0,6.6-4.2,11.8-10.1,11.8l-143.9,0.6L279.3,452.5L279.3,452.5z"/>
<path class="st3" d="M474.8,113.5c-2.1,4.6-6.7,7.8-12,7.8c-7.3,0-13.2-5.9-13.2-13.2c0-5.7,3.6-10.6,8.7-12.4
	C464.1,101.3,469.6,107.3,474.8,113.5z"/>
<ellipse transform="matrix(0.1602 -0.9871 0.9871 0.1602 241.8203 468.0122)" class="st4" cx="396" cy="91.9" rx="13.2" ry="13.2"/>
<path class="st4" d="M518.7,360.3c-8.8,25.6-21.5,49.4-37.4,70.7l-51.6-0.2c-6,0-11-5.1-11-11.8c0-6.7,4.2-11.8,10.2-11.8l36.1-0.1
	c6,0,11-4.4,11-11c0-6.7-6.3-12.2-12.2-12.2l-56.2-0.4c-6,0-10.4-5.2-10.4-11.8c0-6.6,4.8-11.8,10.8-11.8l74.7,0.3L518.7,360.3z"/>
<path class="st2" d="M164.3,444.8h21.5c5.9,0,10.1-5.1,10.1-11.8c0-6.7-5-11.8-11-11.8l-20.5-0.4h-33.3c-5.4,0-9.3,5.1-9.3,11.8
	c0,6.7,4.6,11.8,10.1,11.8L164.3,444.8z"/>
<path class="st2" d="M145.9,133.2h21.5c5.9,0,10.1-5.1,10.1-11.8s-5-11.8-11-11.8l-20.5-0.4h-33.3c-5.4,0-9.3,5.1-9.3,11.8
	s4.6,11.8,10.1,11.8L145.9,133.2z"/>
<path class="st3" d="M458.6,362h21.5c5.9,0,10.1-5.1,10.1-11.8c0-6.7-5-11.8-11-11.8l-20.5-0.4h-33.3c-5.4,0-9.3,5.1-9.3,11.8
	c0,6.7,4.6,11.8,10,11.8L458.6,362z"/>
<path class="st3" d="M325.2,344.8h21.5c5.9,0,10.1-5.1,10.1-11.8c0-6.7-5-11.8-11-11.8l-20.5-0.4H292c-5.4,0-9.3,5.1-9.3,11.8
	c0,6.7,4.6,11.8,10,11.8L325.2,344.8z"/>
<path class="st2" d="M166,294l-88.6-0.6c-4.5,0-8.4-3.9-8.4-9s3.6-9,8.1-9l28.5,0.4c4.6,0,8.4-4,8.4-9s-3.7-8.9-8.3-8.9
	s-8.3-3.7-8.3-8.9c0-5.1,3.4-9.4,7.9-9.4l101,0.4c4.6,0,8.4,3.9,8.4,9s-3.2,9-7.8,9h-27.5c-4.6,0-8.4,3.3-8.4,8.4s4.8,9.3,9.3,9.3
	l42.9,0.3c4.6,0,7.9,4,7.9,9s-3.7,9-8.3,9L166,294L166,294z"/>
<g>
	<path class="st5" d="M283.5,459.2c0-6.7,4.8-11.8,10.8-11.8l74.7,0.2l98.4,0.5l0,0c-7.4,8.2-15.3,16-23.7,23.2
		c-3.9,3.4-8,6.7-12.1,9.8c-20.7,15.7-43.9,28.5-68.7,37.3l-46.7-0.1c-6,0-11-5.1-11-11.8c0-6.7,4.2-11.8,10.2-11.8l36.1-0.2
		c6,0,11-4.3,11-11c0-6.7-6.3-12.2-12.2-12.2L294,471C287.9,471,283.5,465.8,283.5,459.2z"/>
</g>
<g>
	<path class="st5" d="M334.7,217.9c0-6.6,4.7-11.8,10.6-11.8l37.4,0.5c6,0,11-5.2,11-11.8c0-6.7-4.8-11.6-10.8-11.6
		c-6,0-10.8-4.9-10.8-11.6c0-6.6,4.4-12.3,10.4-12.3l121.4,0.5c4,7.7,7.6,15.6,10.8,23.7l-35.1,0.1c-6,0-11,4.4-11,11
		c0,6.7,6.3,12.2,12.2,12.2l41.9,0.3c2.2,7.8,4.1,15.7,5.6,23.7l-66.4-0.2l-116.2-0.8C339.8,229.7,334.7,224.5,334.7,217.9z"/>
</g>
<path class="st6" d="M279,9.2C130.5,9.2,10.2,129.5,10.2,277.9S130.5,546.7,279,546.7s268.8-120.3,268.8-268.8S427.4,9.2,279,9.2z
	 M278.5,531C138.7,531,25.3,417.6,25.3,277.7S138.7,24.4,278.5,24.4s253.3,113.4,253.3,253.3S418.4,531,278.5,531z"/>
<circle class="st7" cx="278.3" cy="277.2" r="250"/>
<g>
	<g>
		<g>
			<g>
				
					<ellipse transform="matrix(0.1602 -0.9871 0.9871 0.1602 -195.6482 642.4236)" class="st6" cx="279.7" cy="436.2" rx="26.1" ry="26.1"/>
				<path class="st6" d="M401.1,107.5C401.1,105.1,401.2,109.9,401.1,107.5C401.6,109.8,401.5,105.1,401.1,107.5z"/>
			</g>
			<path class="st6" d="M382.7,211.4c-14.6,75.5-85.2,114.2-88.8,167.9c-0.1,1.4-0.1,2.8-0.1,4.2c-1.5,8.8-10.3,14.8-19.7,13.3
				c-9.3-1.4-15.7-9.7-14.2-18.5c-0.1-55.7,87.3-132.6,87.3-168.7l2.3-11.8c0-48.2-31.8-86.2-71.1-86.6c0.2,0,0.4,0,0.6,0h-1.2
				c0.2,0,0.4,0,0.6,0c-39.3,0.4-62.9,41.7-62.9,89.9l-0.2,0v0c-1.5,8.8-10.3,14.8-19.7,13.3c-9.3-1.4-15.7-9.7-14.2-18.5
				c0-63.3,38.6-116.8,96.3-116.8c56.8,0,103.1,53.4,105.8,116.8C383.8,197.9,382.7,209.5,382.7,211.4z"/>
		</g>
	</g>
</g>
<path class="st8" d="M487.7,390.7c-19.4,40.5-118.6,141.8-177.1,112.9c-41.2-20.3,49.2-44.3,110.8-132c61.1-86.9,17-160,71.4-158.3
	C541.1,214.9,506.1,352.4,487.7,390.7z"/>
<path class="st8" d="M94.4,127.3c16-18.2,96.6-105.7,126.7-67.3c23.3,29.7-27.3,38.8-61,84.7c-41.1,56-73.6,143.5-114.7,113.1
	C26.1,243.4,79.3,144.5,94.4,127.3z"/>
</svg>
