<?xml version="1.0" encoding="utf-8"?>
<!-- Generator: Adobe Illustrator 23.0.1, SVG Export Plug-In . SVG Version: 6.00 Build 0)  -->
<svg version="1.1" id="Layer_1" xmlns="http://www.w3.org/2000/svg" xmlns:xlink="http://www.w3.org/1999/xlink" x="0px" y="0px"
	 viewBox="0 0 800 600" style="enable-background:new 0 0 800 600;" xml:space="preserve">
<style type="text/css">
	.st0{fill:#E8BB7E;}
	.st1{fill:#E2B774;}
	.st2{fill:#C9A171;}
	.st3{fill:#C19768;}
	.st4{fill:#A57650;}
</style>
<path class="st0" d="M300.4,109.2c-3,1.5-6,3-9,4.6c-1.4,0.7-2.7,1.5-4,2.3c-2.6,1.5-5.1,3-7.6,4.6c-22.7,14.4-42.6,32.9-58.4,54.5
	c-3.4,4.6-6.5,9.3-9.5,14.1c-1.3,2.1-2.6,4.2-3.8,6.3c-1,1.7-1.9,3.4-2.8,5.1c-0.8,1.5-1.6,3.1-2.4,4.6c-2.1,4.1-4,8.2-5.8,12.4
	c-0.2,0.6-0.5,1.1-0.7,1.7c-3.1,7.5-5.9,15.3-8.1,23.2c-5.4,18.9-8.3,38.8-8.3,59.4c0,118.2,95.6,213.8,213.8,213.8v-428
	C360.3,87.8,328.6,95.4,300.4,109.2z"/>
<path class="st1" d="M392,87.8v100.6V200v4.6v9.9v301.2c24.9,0,48.9-4.3,71.1-12.1c2.4-0.9,4.8-1.8,7.2-2.7c6.6-2.6,13-5.5,19.3-8.8
	c1.7-0.9,3.4-1.8,5-2.7c6.8-3.7,13.3-7.8,19.6-12.2c4.5-3.2,9-6.5,13.2-10.1c11-9,21.1-19.2,30.1-30.2c4-4.9,7.7-9.9,11.3-15.1
	c1-1.4,1.9-2.8,2.8-4.2c2.8-4.4,5.5-9,8.1-13.6c16.6-30.5,26-65.4,26-102.6C605.8,183.3,510.2,87.8,392,87.8z"/>
<g>
	<path class="st2" d="M335.5,308.5c-4.7,4.7-11.7,5-15.9,0.8l-26-27c-4.2-4.3-11.4-4.2-16.1,0.5c-4.7,4.7-4.9,11.6-0.6,15.9
		c4.2,4.3,4.1,11.1-0.6,15.9c-4.7,4.7-11.8,5.5-16,1.2l-71.8-73.2c2.4-8.5,5.4-16.8,8.8-24.9l11.9,12c4.2,4.3,10.8,4.8,15.6,0.1
		c4.7-4.7,4.3-13.1,0.1-17.3l-16.5-16.9c4-7.1,8.5-13.9,13.3-20.4l33.5,34.1l81.1,83.1C340.3,296.6,340.2,303.8,335.5,308.5z"/>
</g>
<path class="st2" d="M323.5,370.2l63.3,62c3.3,3.1,3.3,8.6-0.2,12.3c-3.5,3.6-8.8,4-12.1,0.9l-20.3-20.1c-3.3-3.2-8.8-3-12.3,0.7
	c-3.5,3.6-3.5,8.9-0.2,12.1s3.3,8.4-0.2,12.1c-3.5,3.6-8.9,4.4-12.2,1.2L257,380.9c-3.3-3.2-3.3-8.6,0.3-12.3
	c3.5-3.6,8.6-4.2,11.8-1.1l19.8,19.1c3.3,3.2,8.3,3.4,11.9-0.2c3.5-3.6,3-10-0.2-13.2l-30.6-30c-3.3-3.2-2.9-8.4,0.6-12
	c3.5-3.6,8.9-3.9,12.2-0.8L323.5,370.2L323.5,370.2z"/>
<g>
	<path class="st3" d="M528.5,467.2c-19,15.6-40.7,28-64.4,36.4L433.2,474c-4.3-4.1-4.4-11.3,0.2-16.2c4.6-4.8,11.2-5.6,15.5-1.5
		l26.2,24.8c4.3,4.1,11,4.4,15.5-0.4c4.6-4.8,3.9-13.2-0.4-17.3l-40.5-39c-4.3-4.1-4-10.9,0.6-15.7c4.6-4.8,11.7-5.3,16-1.1
		l53.9,51.7L528.5,467.2z"/>
</g>
<path class="st4" d="M580.7,404c-2.5,4.6-5.2,9.2-8.1,13.6c30.4,51.9,41.5,91.4,26,106.3c-15.8,15.2-56,1.9-108-31.8
	c-29.3-19-62.4-44.4-96.9-74.9c-0.3-0.2-0.5-0.4-0.8-0.7c-24-21.3-48.8-44.9-73.4-70.6c-46.9-48.8-86.9-97.5-116.6-140.8
	c-48.3-70.4-69.7-126.4-50.6-144.8c18.8-18.1,72.3,4.3,139.1,53.3c2.9-1.6,5.9-3.2,9-4.6c-83-63.6-150.8-93.9-173.6-71.9
	c-23.3,22.5,6.2,94,69.6,182.2c32.4,45.1,73.7,94.5,121.4,144c25.2,26.2,50.5,50.6,75.2,72.8c0.3,0.2,0.5,0.5,0.8,0.7
	c26.8,24.1,52.9,45.6,77.5,64c79.2,59.3,143.2,86.8,165.2,65.6C658.1,545.8,634.5,483.1,580.7,404z"/>
<path class="st2" d="M340.8,361.5l15.1,15.3c4.2,4.2,10.8,3.6,15.5-1.1c4.8-4.7,4.9-11.9,0.7-16.1l-14.2-14.8l-23.4-23.6
	c-3.8-3.8-10.2-3-14.9,1.7c-4.8,4.7-5.2,11.6-1.3,15.5L340.8,361.5z"/>
<path class="st4" d="M569.8,421.9c-3.5,5.2-7.3,10.3-11.3,15.1c6.5,19.4,6.5,33.8-1.1,41.2c-7.7,7.5-22.5,6.7-42.2-0.9
	c-31.1-12-74.4-41-121.5-81.7c-0.3-0.2-0.5-0.4-0.8-0.6c-22.4-19.4-45.7-41.4-68.9-65.5C276.5,280,237.6,230.6,212,189.3
	c-29.8-48.1-41.5-85.3-27.6-98.7c13.7-13.2,49.5-0.7,95.5,30c2.5-1.6,5-3.1,7.6-4.6C227.6,73.5,180.1,54.7,163,71.2
	c-17.5,16.8,0.4,66.4,42.4,129.5c28.9,43.5,69.3,93.4,117.3,143.3c23.6,24.5,47.3,47.2,70.3,67.6c0.3,0.2,0.5,0.4,0.8,0.7
	c36.7,32.4,71.6,58.8,101.9,77.3c45,27.6,79.5,37.8,93.5,24.3C603,500.5,594.7,466.7,569.8,421.9z"/>
</svg>
