<?xml version="1.0" encoding="utf-8"?>
<!-- Generator: Adobe Illustrator 23.0.1, SVG Export Plug-In . SVG Version: 6.00 Build 0)  -->
<svg version="1.1" id="Layer_1" xmlns="http://www.w3.org/2000/svg" xmlns:xlink="http://www.w3.org/1999/xlink" x="0px" y="0px"
	 viewBox="0 0 800 600" enable-background="new 0 0 800 600" xml:space="preserve">
<path fill="#E8BB7E" d="M300.44,109.19c-3.02,1.47-6.01,3.01-8.95,4.63c-1.35,0.73-2.69,1.48-4.02,2.25
	c-2.57,1.48-5.1,3.01-7.6,4.59c-22.72,14.36-42.55,32.9-58.42,54.53c-3.35,4.56-6.53,9.26-9.5,14.1c-1.3,2.08-2.55,4.19-3.77,6.32
	c-0.96,1.68-1.9,3.37-2.8,5.07c-0.83,1.53-1.63,3.07-2.41,4.62c-2.07,4.07-4,8.22-5.8,12.44c-0.24,0.55-0.47,1.11-0.7,1.67
	c-3.15,7.52-5.87,15.27-8.14,23.2C182.9,261.47,180,281.4,180,302c0,118.19,95.56,213.75,213.75,213.75v-428
	C360.28,87.75,328.63,95.45,300.44,109.19z"/>
<path fill="#E2B774" d="M393,87.75v100.63v11.65v4.63v9.88v301.21c24.93,0,48.86-4.27,71.09-12.13c2.42-0.85,4.82-1.75,7.19-2.69
	c6.61-2.61,13.05-5.53,19.32-8.77c1.68-0.87,3.35-1.76,5.01-2.67c6.78-3.71,13.33-7.79,19.64-12.2c4.54-3.19,8.96-6.55,13.24-10.06
	c10.99-9.05,21.06-19.16,30.06-30.2c3.98-4.87,7.74-9.92,11.27-15.14c0.96-1.4,1.9-2.81,2.82-4.24c2.85-4.42,5.55-8.96,8.07-13.6
	c16.61-30.47,26.04-65.42,26.04-102.55C606.75,183.31,511.19,87.75,393,87.75z"/>
<g>
	<path fill="#C9A171" d="M335.46,308.5c-4.73,4.67-11.7,5.01-15.86,0.8l-25.97-26.95c-4.2-4.25-11.42-4.16-16.14,0.51
		c-4.74,4.68-4.86,11.6-0.65,15.86c4.2,4.25,4.13,11.13-0.64,15.85c-4.73,4.67-11.84,5.48-16.05,1.22l-71.82-73.18
		c2.44-8.52,5.4-16.82,8.84-24.87l11.89,11.98c4.2,4.25,10.83,4.76,15.55,0.09c4.73-4.68,4.26-13.05,0.1-17.26l-16.53-16.94
		c4.04-7.07,8.47-13.89,13.27-20.42l33.49,34.1l81.13,83.14C340.28,296.6,340.19,303.82,335.46,308.5z"/>
</g>
<path fill="#C9A171" d="M323.51,370.23l63.32,61.99c3.29,3.11,3.34,8.61-0.19,12.27c-3.53,3.65-8.83,4.03-12.09,0.89l-20.27-20.1
	c-3.28-3.17-8.79-2.98-12.32,0.67c-3.52,3.65-3.5,8.93-0.22,12.1s3.34,8.42-0.22,12.1c-3.52,3.65-8.93,4.39-12.21,1.22l-72.36-70.44
	c-3.28-3.17-3.31-8.65,0.25-12.33c3.52-3.65,8.57-4.22,11.82-1.08l19.83,19.09c3.28,3.17,8.34,3.44,11.86-0.2
	c3.52-3.65,3.02-10.03-0.23-13.16l-30.64-30c-3.28-3.17-2.94-8.37,0.58-12.01c3.52-3.65,8.94-3.94,12.21-0.77L323.51,370.23
	L323.51,370.23z"/>
<g>
	<path fill="#C19768" d="M528.49,467.23c-19,15.62-40.74,28.04-64.4,36.39l-30.9-29.63c-4.33-4.13-4.42-11.31,0.2-16.16
		c4.59-4.83,11.19-5.63,15.49-1.54l26.18,24.83c4.33,4.12,10.96,4.43,15.54-0.38c4.59-4.82,3.87-13.17-0.42-17.26l-40.46-39.03
		c-4.34-4.1-3.96-10.92,0.63-15.73c4.59-4.82,11.66-5.25,16-1.12l53.94,51.72L528.49,467.23z"/>
</g>
<path fill="#A57650" d="M580.71,404.05c-2.52,4.64-5.22,9.18-8.07,13.6c30.41,51.86,41.49,91.41,26.01,106.31
	c-15.77,15.19-56.03,1.89-108.05-31.8c-29.31-18.96-62.35-44.4-96.85-74.86c-0.25-0.22-0.5-0.44-0.75-0.66
	c-24.03-21.25-48.77-44.93-73.44-70.55c-46.94-48.76-86.86-97.49-116.59-140.79c-48.33-70.38-69.73-126.4-50.61-144.81
	c18.78-18.09,72.34,4.26,139.13,53.33c2.94-1.62,5.93-3.16,8.95-4.63c-83.04-63.64-150.75-93.9-173.56-71.94
	c-23.34,22.48,6.18,94,69.59,182.16c32.43,45.09,73.73,94.53,121.36,144c25.2,26.17,50.47,50.58,75.17,72.81
	c0.25,0.23,0.5,0.45,0.75,0.67c26.78,24.08,52.89,45.59,77.53,64.04c79.23,59.3,143.21,86.84,165.25,65.62
	C658.11,545.77,634.5,483.06,580.71,404.05z"/>
<path fill="#C9A171" d="M340.75,361.55l15.08,15.25c4.16,4.19,10.79,3.58,15.51-1.11c4.76-4.72,4.87-11.9,0.66-16.14l-14.23-14.83
	l-23.42-23.65c-3.81-3.84-10.19-2.97-14.91,1.72c-4.76,4.72-5.17,11.6-1.32,15.47L340.75,361.55z"/>
<path fill="#A57650" d="M569.82,421.89c-3.53,5.22-7.29,10.27-11.27,15.14c6.48,19.43,6.54,33.84-1.06,41.16
	c-7.74,7.45-22.54,6.7-42.24-0.9c-31.1-11.99-74.42-41-121.5-81.66c-0.25-0.22-0.5-0.43-0.75-0.65
	c-22.42-19.4-45.68-41.44-68.87-65.53c-47.61-49.44-86.58-98.85-112.18-140.16c-29.84-48.13-41.53-85.27-27.63-98.65
	c13.7-13.2,49.54-0.65,95.55,30.02c2.5-1.58,5.03-3.11,7.6-4.59c-59.85-42.6-107.32-61.36-124.46-44.86
	c-17.46,16.81,0.45,66.43,42.37,129.47c28.91,43.49,69.25,93.36,117.29,143.26c23.63,24.54,47.32,47.21,70.33,67.56
	c0.25,0.22,0.5,0.44,0.75,0.66c36.69,32.36,71.64,58.78,101.86,77.33c44.99,27.64,79.48,37.85,93.55,24.31
	C602.98,500.5,594.65,466.66,569.82,421.89z"/>
</svg>
