<?xml version="1.0" encoding="utf-8"?>
<!-- Generator: Adobe Illustrator 23.0.1, SVG Export Plug-In . SVG Version: 6.00 Build 0)  -->
<svg version="1.1" id="Layer_1" xmlns="http://www.w3.org/2000/svg" xmlns:xlink="http://www.w3.org/1999/xlink" x="0px" y="0px"
	 viewBox="0 0 800 600" style="enable-background:new 0 0 800 600;" xml:space="preserve">
<style type="text/css">
	.st0{fill:#CC3936;}
	.st1{fill:#CE8A46;}
	.st2{fill:#8C4444;}
	.st3{fill:#DDCFC3;}
	.st4{fill:#C95B5B;}
	.st5{fill:#D18A71;}
	.st6{display:none;fill:#C66F44;}
</style>
<g>
	<path class="st0" d="M653.9,297.8c0,28.9-4.8,56.6-13.7,82.6c-8.8,25.6-21.5,49.4-37.4,70.7C556,513.4,482.1,553.8,398.3,553.7
		L398.6,42c70,0.1,133.1,28.1,179.2,73.6c5.8,5.7,11.3,11.7,16.5,17.9C631.5,177.9,653.9,235.2,653.9,297.8z"/>
</g>
<g>
	<g>
		<path class="st1" d="M398.3,52.8v46.6c109.6,0,198.2,88.5,198.2,198.2c0,34.4-8.7,66.8-24.1,95c-2.4,4.3-4.9,8.5-7.5,12.6
			c-0.8,1.3-1.7,2.6-2.6,3.9c-3.3,4.8-6.8,9.5-10.5,14c-8.3,10.2-17.7,19.7-27.9,28c-3.9,3.3-8.1,6.4-12.2,9.4
			c-5.8,4.1-11.9,7.9-18.2,11.3c-1.5,0.8-3.1,1.7-4.6,2.5c-5.8,3.1-11.8,5.7-17.9,8.2c-2.2,0.8-4.5,1.7-6.7,2.5
			c-20.6,7.2-42.8,11.2-65.9,11.2v46.6c28.5,0,56-4.9,81.4-13.9c2.7-1,5.5-2.1,8.2-3.1c7.6-3,14.9-6.3,22.1-10.1
			c1.9-1,3.9-2.1,5.7-3.1c7.8-4.2,15.2-8.9,22.4-14c5.2-3.7,10.3-7.4,15.1-11.6c12.6-10.3,24.2-22,34.5-34.6
			c4.6-5.6,8.8-11.3,12.9-17.3c1.1-1.6,2.2-3.2,3.2-4.8c3.2-5,6.3-10.3,9.3-15.6c19-34.9,29.8-74.9,29.8-117.4
			C643.1,162.2,533.6,52.8,398.3,52.8z"/>
	</g>
	<g>
		<path class="st2" d="M398.3,169l0.1,327.2c23.1,0,45.3-4,65.9-11.2c2.2-0.8,4.5-1.7,6.7-2.5c6.1-2.4,12.1-5.1,17.9-8.2
			c1.6-0.8,3.2-1.7,4.6-2.5c6.3-3.4,12.3-7.2,18.2-11.3c4.2-3,8.3-6,12.2-9.4c10.2-8.3,19.6-17.8,27.9-28c3.7-4.5,7.1-9.2,10.5-14
			c0.9-1.3,1.8-2.6,2.6-3.9c2.6-4.1,5.1-8.3,7.5-12.6c15.4-28.3,24.1-60.6,24.1-95c0-109.7-88.6-198.2-198.2-198.2V169"/>
		<path class="st2" d="M377.2,361.1"/>
	</g>
	<path class="st3" d="M478,297.9c0,45.5-36.6,82.3-81.8,82.3s-1.4-36.9-1.4-82.3s-43.7-82.3,1.4-82.3S478,252.4,478,297.9z"/>
</g>
<g>
	<path class="st4" d="M399.4,232.9l-0.1,320.8c-98.8,0-184-55.8-226.6-137.6c-4-7.7-7.6-15.6-10.8-23.7c-3.1-7.7-5.7-15.5-8-23.5
		c-2.2-7.8-4.1-15.7-5.6-23.7c-2.8-15.2-4.3-30.9-4.3-46.9c0-65.8,24.8-125.8,65.6-171.2l0,0c7.4-8.2,15.3-16,23.7-23.2
		c3.9-3.4,8-6.7,12.1-9.8c20.7-15.7,43.9-28.4,68.8-37.2c0,0,0,0,0.1,0c26.8-9.5,55.3-14.8,85.2-14.8l-0.1,166.2V232.9z"/>
</g>
<g>
	<path class="st5" d="M341.9,357.8c0,6.6-4.7,11.8-10.6,11.8l-37.4-0.5c-6,0-11,5.2-11,11.8c0,6.7,4.8,11.6,10.8,11.6
		s10.8,4.9,10.8,11.6c0,6.6-4.4,12.3-10.4,12.3l-121.4-0.5c-4-7.7-7.6-15.6-10.8-23.7l35.1-0.1c6,0,11-4.4,11-11
		c0-6.7-6.3-12.2-12.2-12.2l-41.9-0.3c-2.2-7.8-4.1-15.7-5.6-23.7l66.4,0.2l116.2,0.8C336.8,346,341.9,351.2,341.9,357.8z"/>
</g>
<g>
	<path class="st5" d="M393.6,116c0,6.7-4.8,11.8-10.8,11.8l-74.7-0.3l-98.4-0.6l0,0c7.4-8.2,15.3-16,23.7-23.2
		c3.9-3.4,8-6.7,12.1-9.8c20.7-15.7,43.9-28.4,68.8-37.2l46.7,0.2c6,0,11,5.1,11,11.8c0,6.7-4.2,11.8-10.2,11.8l-36.1,0.1
		c-6,0-11,4.3-11,11s6.3,12.2,12.2,12.2l56.2,0.4C389.2,104.2,393.6,109.4,393.6,116z"/>
</g>
<path class="st5" d="M399.3,496.6l-36.1,0.1c-6,0-11-5.1-11-11.8c0-6.6,4.2-11.8,10.1-11.8l37-0.6V496.6L399.3,496.6z"/>
<path class="st6" d="M399.3,472.5l143.1-0.1c6,0,11,5.1,11,11.8c0,6.6-4.2,11.8-10.1,11.8l-143.9,0.6L399.3,472.5L399.3,472.5z"/>
<path class="st6" d="M594.8,133.5c-2.1,4.6-6.7,7.8-12,7.8c-7.3,0-13.2-5.9-13.2-13.2c0-5.7,3.6-10.6,8.7-12.4
	C584.1,121.3,589.6,127.3,594.8,133.5z"/>
<path class="st6" d="M640.7,380.3c-8.8,25.6-21.5,49.4-37.4,70.7l-51.6-0.2c-6,0-11-5.1-11-11.8c0-6.7,4.2-11.8,10.2-11.8l36.1-0.1
	c6,0,11-4.4,11-11c0-6.7-6.3-12.2-12.2-12.2l-56.2-0.4c-6,0-10.4-5.2-10.4-11.8c0-6.6,4.8-11.8,10.8-11.8l74.7,0.3L640.7,380.3z"/>
<path class="st5" d="M284.3,464.8h21.5c5.9,0,10.1-5.1,10.1-11.8c0-6.7-5-11.8-11-11.8l-20.5-0.4h-33.3c-5.4,0-9.3,5.1-9.3,11.8
	c0,6.7,4.6,11.8,10.1,11.8L284.3,464.8z"/>
<path class="st6" d="M585.4,333.6h21.4c5.9,0,10.1-5.1,10.1-11.8c0-6.7-5-11.8-11-11.8l-20.5-0.4h-33.3c-5.4,0-9.3,5.1-9.3,11.8
	c0,6.7,4.6,11.8,10.1,11.8L585.4,333.6z"/>
<path class="st6" d="M445.2,364.8h21.5c5.9,0,10.1-5.1,10.1-11.8c0-6.7-5-11.8-11-11.8l-20.5-0.4H412c-5.4,0-9.3,5.1-9.3,11.8
	c0,6.7,4.6,11.8,10,11.8L445.2,364.8z"/>
<path class="st5" d="M281,274.9l-88.6-0.6c-4.5,0-8.4-3.9-8.4-9s3.6-9,8.1-9l28.5,0.4c4.6,0,8.4-4,8.4-9s-3.7-8.9-8.3-8.9
	s-8.3-3.7-8.3-8.9c0-5.1,3.4-9.4,7.9-9.4l101,0.4c4.6,0,8.4,3.9,8.4,9s-3.2,9-7.8,9h-27.5c-4.6,0-8.4,3.3-8.4,8.4s4.8,9.3,9.3,9.3
	l42.9,0.3c4.6,0,7.9,4,7.9,9s-3.7,9-8.3,9L281,274.9L281,274.9z"/>
<path class="st6" d="M472.5,146.9l88.6-0.3c4.5-0.1,8.4,3.8,8.5,8.9c0,5.1-3.5,9.1-8,9.1l-28.5-0.1c-4.6,0-8.4,4-8.3,9.1
	c0,5.1,3.8,8.8,8.3,8.8s8.3,3.7,8.3,8.8s-3.3,9.4-7.8,9.4l-101,0.6c-4.6,0-8.4-3.8-8.5-9c0-5.1,3.1-9,7.7-9.1l27.5-0.3
	c4.6,0,8.4-3.4,8.3-8.5c0-5.1-4.9-9.3-9.4-9.2l-42.9,0.1c-4.6,0-8-3.9-8-9s3.6-9.1,8.2-9.1L472.5,146.9L472.5,146.9z"/>
</svg>
